<?xml version="1.0" encoding="utf-8"?>
<!-- Generator: Adobe Illustrator 17.1.0, SVG Export Plug-In . SVG Version: 6.00 Build 0)  -->
<!DOCTYPE svg PUBLIC "-//W3C//DTD SVG 1.1//EN" "http://www.w3.org/Graphics/SVG/1.1/DTD/svg11.dtd">
<svg version="1.1" id="レイヤー_1" xmlns="http://www.w3.org/2000/svg" xmlns:xlink="http://www.w3.org/1999/xlink" x="0px"
	 y="0px" viewBox="0 0 125 125" enable-background="new 0 0 125 125" xml:space="preserve">
<text transform="matrix(1 0 0 1 32.311 120.0004)" font-family="'AkzidenzGroteskBQ-XBdCnd'" font-size="18.6316">Premire</text>
<g>
	<g>
		<g>
			<circle fill="#444444" cx="62" cy="53" r="51"/>
		</g>
		<path fill="#CECECE" d="M35.4,26.8v52.4h53.3V26.8L35.4,26.8z M84.4,75H39.6V31h44.8V75z"/>
	</g>
	<path fill="#CECECE" d="M63.6,46.6c0-2-0.9-3.8-2.2-4.8c-1.5-1.2-3.7-1.8-6.7-1.8c-2.8,0-4.9,0.2-6.4,0.5V62h4.1v-8.2
		c0.5,0.1,1.3,0.1,2,0.1c2.9,0,5.5-0.7,7.2-2.3C62.9,50.4,63.6,48.7,63.6,46.6z"/>
	<path fill="#444444" d="M59.4,46.8c0,2.6-1.9,4-5,4c-0.8,0-1.5,0-2-0.2v-7.4c0.4-0.1,1.3-0.2,2.4-0.2C57.7,43,59.4,44.3,59.4,46.8z
		"/>
	<path fill="#CECECE" d="M75.8,46c-0.3-0.1-0.6-0.1-1-0.1c-1.8,0-3.7,1.1-4.5,3.4h-0.1l-0.1-3h-3.6c0.1,1.4,0.1,3,0.1,5.1V62h4.2
		v-8.2c0-0.5,0.1-0.9,0.1-1.2c0.4-1.8,1.7-3,3.7-3c0.5,0,0.9,0.1,1.2,0.1L75.8,46L75.8,46z"/>
</g>
</svg>
