<?xml version="1.0" encoding="utf-8"?>
<!-- Generator: Adobe Illustrator 17.1.0, SVG Export Plug-In . SVG Version: 6.00 Build 0)  -->
<!DOCTYPE svg PUBLIC "-//W3C//DTD SVG 1.1//EN" "http://www.w3.org/Graphics/SVG/1.1/DTD/svg11.dtd">
<svg version="1.1" id="レイヤー_1" xmlns="http://www.w3.org/2000/svg" xmlns:xlink="http://www.w3.org/1999/xlink" x="0px"
	 y="0px" viewBox="0 0 125 125" enable-background="new 0 0 125 125" xml:space="preserve">
<g>
	<g>
		<circle fill="#CECECE" cx="62" cy="53" r="51"/>
	</g>
	<path fill="#444444" d="M62,68 M38.8,31.8L43,79.3l19,5.3l19-5.3l4.2-47.4L38.8,31.8z M76.5,42.7l-1.4,16l0,0l-1,11.1l-0.1,1
		L62,74.1l-11.9-3.3l-0.8-9.1h5.8l0.4,4.6L62,68l0,0h0l6.5-1.7l0.7-7.5H55.6l-0.1-1.3l-0.3-3l-0.1-1.6h14.6l0.5-6H48l-0.1-1.3
		l-0.3-3l-0.1-1.6h29.1L76.5,42.7L76.5,42.7z"/>
	<polygon fill="#444444" points="62.6,35 43.7,35 47.4,75.5 62.6,79.8 	"/>
	<polygon fill="#444444" points="62,35 80.4,35 76.8,75.1 62,79 	"/>
	<path fill="#444444" d="M38.8,31.8l0.1,1.1l4.1,46.6l19.1,5l19.1-5l4.2-47.7H38.8z M76.6,75.4l-14.5,3.8l-14.5-3.8l-3.4-38.5h35.8
		L76.6,75.4z"/>
	<g>
		<polyline fill="#CECECE" points="50.2,64.4 45,62.8 45,69.4 56,73.1 56,41 50,41 		"/>
		<polygon fill="#CECECE" points="62,41 76,41 76,50 69.5,50 69.3,53 75.4,53 73.4,69.2 62,72.2 62,66.9 68.2,64.1 69.8,56 62,56 		
			"/>
	</g>
</g>
<text transform="matrix(1 0 0 1 24.9081 120.0004)" font-family="'AkzidenzGroteskBQ-XBdCnd'" font-size="18.6316">Javascript</text>
</svg>
