<?xml version="1.0" encoding="utf-8"?>
<!-- Generator: Adobe Illustrator 17.1.0, SVG Export Plug-In . SVG Version: 6.00 Build 0)  -->
<!DOCTYPE svg PUBLIC "-//W3C//DTD SVG 1.1//EN" "http://www.w3.org/Graphics/SVG/1.1/DTD/svg11.dtd">
<svg version="1.1" id="レイヤー_1" xmlns="http://www.w3.org/2000/svg" xmlns:xlink="http://www.w3.org/1999/xlink" x="0px"
	 y="0px" viewBox="0 0 125 125" enable-background="new 0 0 125 125" xml:space="preserve">
<text transform="matrix(1 0 0 1 33.4535 120.0004)" font-family="'AkzidenzGroteskBQ-XBdCnd'" font-size="18.6316">Node.js</text>
<g>
	<g>
		<circle fill="#CECECE" cx="62" cy="53" r="51"/>
	</g>
	<path fill="#444444" stroke="#444444" stroke-width="0.5" stroke-miterlimit="10" d="M62.2,82.1c-0.7,0-1.4-0.2-2.1-0.6l-6.6-3.9
		c-1-0.6-0.5-0.7-0.2-0.9c1.3-0.5,1.6-0.6,3-1.4c0.1-0.1,0.3-0.1,0.5,0l5.1,3c0.2,0.1,0.4,0.1,0.6,0L82.4,67
		c0.2-0.1,0.3-0.3,0.3-0.5V43.7c0-0.2-0.1-0.4-0.3-0.5L62.6,31.7c-0.2-0.1-0.4-0.1-0.6,0L42.2,43.1c-0.2,0.1-0.3,0.3-0.3,0.5v22.9
		c0,0.2,0.1,0.4,0.3,0.5l5.4,3.1c2.9,1.5,4.7-0.3,4.7-2V45.6c0-0.3,0.3-0.6,0.6-0.6h2.5c0.3,0,0.6,0.3,0.6,0.6v22.6
		c0,3.9-2.1,6.2-5.9,6.2c-1.1,0-2,0-4.6-1.2l-5.2-3c-1.3-0.7-2.1-2.1-2.1-3.6V43.7c0-1.5,0.8-2.9,2.1-3.6l19.8-11.4
		c1.3-0.7,2.9-0.7,4.2,0L84.1,40c1.3,0.7,2.1,2.1,2.1,3.6v22.9c0,1.5-0.8,2.9-2.1,3.6L64.3,81.6C63.7,81.9,63,82.1,62.2,82.1
		L62.2,82.1z M68.4,66.4c-8.7,0-10.5-4-10.5-7.3c0-0.3,0.3-0.6,0.6-0.6H61c0.3,0,0.5,0.2,0.6,0.5c0.4,2.6,1.5,3.9,6.8,3.9
		c4.2,0,5.9-0.9,5.9-3.2c0-1.3-0.5-2.2-7-2.9c-5.4-0.5-8.8-1.7-8.8-6.1c0-4,3.4-6.4,9-6.4c6.3,0,9.5,2.2,9.9,6.9
		c0,0.2,0,0.3-0.2,0.4C77.2,51.9,77,52,76.9,52h-2.6c-0.3,0-0.5-0.2-0.6-0.4c-0.6-2.7-2.1-3.6-6.2-3.6c-4.6,0-5.1,1.6-5.1,2.8
		c0,1.4,0.6,1.9,6.8,2.7c6.1,0.8,9,1.9,9,6.2C78.2,63.9,74.6,66.4,68.4,66.4L68.4,66.4z"/>
</g>
</svg>
