<?xml version="1.0" encoding="utf-8"?>
<!-- Generator: Adobe Illustrator 17.1.0, SVG Export Plug-In . SVG Version: 6.00 Build 0)  -->
<!DOCTYPE svg PUBLIC "-//W3C//DTD SVG 1.1//EN" "http://www.w3.org/Graphics/SVG/1.1/DTD/svg11.dtd">
<svg version="1.1" id="レイヤー_1" xmlns="http://www.w3.org/2000/svg" xmlns:xlink="http://www.w3.org/1999/xlink" x="0px"
	 y="0px" viewBox="0 0 125 125" enable-background="new 0 0 125 125" xml:space="preserve">
<text transform="matrix(1 0 0 1 47.0576 120.0004)" font-family="'AkzidenzGroteskBQ-XBdCnd'" font-size="18.6316">PHP</text>
<g>
	<g>
		<circle fill="#CECECE" cx="62" cy="53" r="51"/>
	</g>
	<path fill="#444444" d="M46.8,44.3H36.2l-4.6,23.4H37l1.2-6.1h5.2C48.3,62,53.8,57.9,53.8,51C53.8,46.9,51.5,44.6,46.8,44.3
		L46.8,44.3z M42.8,57.3h-3.5l1.4-8.7h3.8c2,0,3.5,0.9,3.5,2.6C47.7,56.2,45.4,57,42.8,57.3z M66.2,44.3H61l1.2-6.1h-5.5L52,61.7
		h5.5l2.6-13h4.3c2,0,2,0.9,1.7,2.3l-2,10.7h5.8l2-11.8C72.5,46.9,70.8,44.6,66.2,44.3L66.2,44.3z M85.5,44.3H74.8l-4.6,23.4h5.5
		l1.2-6.1h5.2C87,62,92.5,57.9,92.5,51C92.5,46.9,90.2,44.6,85.5,44.3L85.5,44.3z M81.5,57.3H78l1.4-8.7h3.8c2,0,3.5,0.9,3.5,2.6
		C86.4,56.2,84.1,57,81.5,57.3z"/>
</g>
</svg>
