<?xml version="1.0" encoding="utf-8"?>
<!-- Generator: Adobe Illustrator 17.1.0, SVG Export Plug-In . SVG Version: 6.00 Build 0)  -->
<!DOCTYPE svg PUBLIC "-//W3C//DTD SVG 1.1//EN" "http://www.w3.org/Graphics/SVG/1.1/DTD/svg11.dtd">
<svg version="1.1" id="レイヤー_1" xmlns="http://www.w3.org/2000/svg" xmlns:xlink="http://www.w3.org/1999/xlink" x="0px"
	 y="0px" viewBox="0 0 125 125" enable-background="new 0 0 125 125" xml:space="preserve">
<g>
	<g>
		<circle fill="#CECECE" cx="62" cy="53" r="51"/>
	</g>
	<path fill="#444444" d="M38.8,31.3L43,78.8l19,5.3l19-5.3l4.2-47.5L38.8,31.3L38.8,31.3z M47.6,42.6L47.4,41H62v5.8h-8.2l0.5,6H62
		v5.8H49L47.6,42.6L47.6,42.6z M75.4,54.4L74,69.7l-0.1,1L62,74l-11.9-3.3l-0.8-9.1h5.8l0.4,4.6L62,68l6.5-1.8l0.7-7.6H62v-5.8h13.5
		L75.4,54.4L75.4,54.4z M76.4,42.6l-0.3,3L76,46.9H62V41h14.6L76.4,42.6z"/>
</g>
<text transform="matrix(1 0 0 1 42.2353 120.0004)" font-family="'AkzidenzGroteskBQ-XBdCnd'" font-size="18.6316">HTML</text>
</svg>
