<?xml version="1.0" encoding="utf-8"?>
<!-- Generator: Adobe Illustrator 17.1.0, SVG Export Plug-In . SVG Version: 6.00 Build 0)  -->
<!DOCTYPE svg PUBLIC "-//W3C//DTD SVG 1.1//EN" "http://www.w3.org/Graphics/SVG/1.1/DTD/svg11.dtd">
<svg version="1.1" id="レイヤー_1" xmlns="http://www.w3.org/2000/svg" xmlns:xlink="http://www.w3.org/1999/xlink" x="0px"
	 y="0px" viewBox="0 0 125 125" enable-background="new 0 0 125 125" xml:space="preserve">
<text transform="matrix(1 0 0 1 23.7997 120.0004)" font-family="'AkzidenzGroteskBQ-XBdCnd'" font-size="18.6316">Photoshop</text>
<g>
	<g>
		<circle fill="#444444" cx="62" cy="53" r="51"/>
	</g>
	<path fill="#CECECE" d="M35.4,27.1v52.4h53.3V27.1L35.4,27.1z M84.4,75.3H39.6v-44h44.8V75.3z"/>
	<path fill="#CECECE" d="M60.5,41.8c-1.3-1.2-3.3-1.8-6.1-1.8c-2.8,0-6.1,0.1-6.1,0.1v21.5h4.5v-6.9c0,0,0.8,0,1.6,0
		c3.1-0.1,4.9-1.1,6.4-2.6c1.2-1.2,1.8-3,1.8-5.1C62.7,44.8,61.8,42.9,60.5,41.8z M54.3,50.8c-0.7,0-1,0-1.5,0v-7.4c0,0,1,0,1.9,0
		c2.3,0.1,3.5,1.7,3.5,3.7C58.2,49.3,56.7,50.8,54.3,50.8z"/>
	<path fill="#CECECE" d="M71.5,51.5c-1.9-0.7-2.6-1.1-2.6-1.8c0-0.8,0.7-1.3,1.9-1.3c1.4,0,3.4,0.9,4.1,1.3V46
		c-1-0.5-2.4-1.1-4.3-1.1c-3.9,0-6.5,2.3-6.5,5.3c0,1.9,1.2,3.2,4.5,4.3c1.8,0.6,2.3,1.5,2.3,2.3s-0.6,1.3-2.1,1.3
		c-1.5,0-3.6-0.8-4.5-1.4l0,0v3.6c1.2,0.7,2.9,1.3,4.5,1.3c4.6,0.1,6.9-2.2,6.9-5.2C75.7,54.1,74.5,52.5,71.5,51.5L71.5,51.5z"/>
</g>
</svg>
