<?xml version="1.0" encoding="utf-8"?>
<!-- Generator: Adobe Illustrator 17.1.0, SVG Export Plug-In . SVG Version: 6.00 Build 0)  -->
<!DOCTYPE svg PUBLIC "-//W3C//DTD SVG 1.1//EN" "http://www.w3.org/Graphics/SVG/1.1/DTD/svg11.dtd">
<svg version="1.1" id="レイヤー_1" xmlns="http://www.w3.org/2000/svg" xmlns:xlink="http://www.w3.org/1999/xlink" x="0px"
	 y="0px" viewBox="0 0 125 125" enable-background="new 0 0 125 125" xml:space="preserve">
<text transform="matrix(1 0 0 1 32.7241 120.0004)" font-family="'AkzidenzGroteskBQ-XBdCnd'" font-size="18.6316">Python3</text>
<g>
	<g>
		<circle fill="#CECECE" cx="62" cy="53" r="51"/>
	</g>
	<path fill="#444444" d="M55.7,52.1h12.2c3.4,0,6.1-2.8,6.1-6.2V34.2c0-3.3-2.8-5.8-6.1-6.4c-2.1-0.3-4.3-0.5-6.4-0.5
		s-4.1,0.2-5.9,0.5c-5.2,0.9-6.1,2.8-6.1,6.4v4.7h12.2v1.6H45c-3.6,0-6.7,2.1-7.6,6.2c-1.1,4.7-1.2,7.6,0,12.4
		c0.9,3.6,2.9,6.2,6.5,6.2H48v-5.6C48,55.7,51.5,52.1,55.7,52.1L55.7,52.1z M54.9,35.8c-1.3,0-2.3-1-2.3-2.3c0-1.3,1-2.3,2.3-2.3
		c1.3,0,2.3,1,2.3,2.3C57.2,34.7,56.2,35.8,54.9,35.8z M86.3,46.6c-0.9-3.5-2.6-6.2-6.1-6.2h-4.6v5.4c0,4.2-3.6,7.8-7.6,7.8H55.7
		c-3.3,0-6.1,2.9-6.1,6.2v11.7c0,3.3,2.9,5.3,6.1,6.2c3.9,1.1,7.6,1.3,12.2,0C71,76.8,74,75,74,71.5v-4.7H61.8v-1.6h18.3
		c3.6,0,4.9-2.5,6.1-6.2C87.5,55.2,87.5,51.6,86.3,46.6L86.3,46.6z M68.7,69.9c1.3,0,2.3,1,2.3,2.3c0,1.3-1,2.3-2.3,2.3
		c-1.3,0-2.3-1-2.3-2.3C66.4,71,67.4,69.9,68.7,69.9z"/>
</g>
</svg>
