<?xml version="1.0" encoding="utf-8"?>
<!-- Generator: Adobe Illustrator 17.1.0, SVG Export Plug-In . SVG Version: 6.00 Build 0)  -->
<!DOCTYPE svg PUBLIC "-//W3C//DTD SVG 1.1//EN" "http://www.w3.org/Graphics/SVG/1.1/DTD/svg11.dtd">
<svg version="1.1" id="レイヤー_1" xmlns="http://www.w3.org/2000/svg" xmlns:xlink="http://www.w3.org/1999/xlink" x="0px"
	 y="0px" viewBox="0 0 125 125" enable-background="new 0 0 125 125" xml:space="preserve">
<g>
	<g>
		<circle fill="#CECECE" cx="62" cy="53" r="51"/>
	</g>
	<path fill="#444444" d="M62,67.5 M38.8,31.3L43,78.8L62,84l19-5.3l4.2-47.4L38.8,31.3z M76.5,42.2l-1.4,16l0,0l-1,11.1l-0.1,1
		L62,73.6l-11.9-3.3l-0.8-9.1h5.8l0.4,4.6l6.5,1.7l0,0h0l6.5-1.7l0.7-7.5H55.6l-0.1-1.3l-0.3-3l-0.1-1.6h14.6l0.5-6H48l-0.1-1.3
		l-0.3-3l-0.1-1.6h29.1L76.5,42.2L76.5,42.2z"/>
</g>
<text transform="matrix(1 0 0 1 48.2221 120.0004)" font-family="'AkzidenzGroteskBQ-XBdCnd'" font-size="18.6316">CSS</text>
</svg>
