<?xml version="1.0" encoding="utf-8"?>
<!-- Generator: Adobe Illustrator 17.1.0, SVG Export Plug-In . SVG Version: 6.00 Build 0)  -->
<!DOCTYPE svg PUBLIC "-//W3C//DTD SVG 1.1//EN" "http://www.w3.org/Graphics/SVG/1.1/DTD/svg11.dtd">
<svg version="1.1" id="レイヤー_1" xmlns="http://www.w3.org/2000/svg" xmlns:xlink="http://www.w3.org/1999/xlink" x="0px"
	 y="0px" viewBox="0 0 125 125" enable-background="new 0 0 125 125" xml:space="preserve">
<text transform="matrix(1 0 0 1 15.791 120.0004)" font-family="'AkzidenzGroteskBQ-XBdCnd'" font-size="18.6316">RaspberryPi</text>
<g>
	<g>
		<circle fill="#CECECE" cx="62" cy="52.8" r="51"/>
	</g>
	<path fill="#444444" d="M81.7,49.8l-0.4-0.8c0-5.5-2.5-7.8-5.4-9.5c0.9-0.2,1.8-0.4,2.1-1.6c1.5-0.4,1.8-1.1,2-1.9
		c0.4-0.3,1.7-1,1.6-2.3c0.7-0.5,1.2-1.2,1-2.1c0.8-0.9,1-1.6,0.7-2.3c1-1.2,0.5-1.8,0.1-2.5c0.7-1.3,0.1-2.8-1.9-2.5
		c-0.8-1.2-2.6-0.9-2.8-0.9c-0.3-0.4-0.7-0.7-1.9-0.6c-0.8-0.7-1.7-0.6-2.6-0.2c-1.1-0.9-1.8-0.2-2.6,0.1c-1.3-0.4-1.6,0.2-2.3,0.4
		c-1.4-0.3-1.9,0.4-2.6,1.1l-0.8,0c-2.2,1.3-3.3,3.9-3.6,5.2c-0.4-1.3-1.5-4-3.6-5.2l-0.8,0c-0.7-0.7-1.1-1.4-2.6-1.1
		c-0.6-0.2-1-0.8-2.3-0.4c-0.5-0.2-1-0.5-1.6-0.5l0,0c-0.3,0-0.6,0.1-1,0.4c-0.9-0.4-1.8-0.5-2.6,0.2c-1.2-0.2-1.6,0.2-1.9,0.6
		c-0.3,0-2-0.3-2.8,0.9c-2-0.2-2.7,1.2-1.9,2.5c-0.4,0.6-0.8,1.3,0.1,2.5c-0.3,0.7-0.1,1.4,0.7,2.3c-0.2,1,0.2,1.6,1,2.1
		c-0.1,1.3,1.2,2.1,1.6,2.3c0.2,0.8,0.5,1.5,2,1.9c0.3,1.1,1.2,1.3,2.1,1.6c-2.9,1.7-5.5,4-5.4,9.5l-0.4,0.8c-3.4,2-6.4,8.6-1.7,14
		c0.3,1.7,0.8,2.9,1.3,4.2c0.7,5.4,5.2,7.9,6.4,8.2c1.7,1.3,3.6,2.6,6.1,3.5c2.4,2.4,4.9,3.4,7.5,3.4c0,0,0.1,0,0.1,0
		c2.6,0,5.1-0.9,7.5-3.4c2.5-0.9,4.4-2.1,6.1-3.5c1.2-0.3,5.7-2.8,6.4-8.2c0.5-1.3,1-2.5,1.3-4.2C88.1,58.5,85.1,51.9,81.7,49.8z
		 M78.7,48.9c-0.2,2.2-11.6-7.7-9.6-8.1C74.4,39.9,78.8,43.1,78.7,48.9z M66.2,25.7c0.1,0.5,0.2,0.8,0.3,0.9c0.6-0.7,1.1-1.4,2-2.1
		c0,0.4-0.2,0.8,0.3,1.1c0.4-0.6,1-1.1,1.8-1.6c-0.4,0.7-0.1,0.9,0.1,1.1c0.6-0.5,1.2-1,2.3-1.5c-0.3,0.4-0.7,0.7-0.3,1.2
		c0.6-0.4,1.2-0.8,2.7-1.1c-0.3,0.4-1,0.7-0.6,1.1c0.8-0.3,1.6-0.5,2.6-0.6c-0.5,0.4-0.8,0.8-0.5,1c0.8-0.3,2-0.6,3.1-0.3l-0.7,0.7
		c-0.1,0.1,1.7,0.1,2.8,0.1c-0.4,0.6-0.8,1.2-1.1,2.2c0.1,0.1,0.7,0.1,1.2,0c-0.5,1.2-1.5,1.5-1.7,2c0.3,0.3,0.8,0.2,1.3,0
		c-0.4,0.8-1.2,1.4-1.9,2.1c0.2,0.1,0.5,0.2,1.1,0.1c-0.6,0.7-1.3,1.2-2.2,1.8c0.2,0.2,0.7,0.2,1.2,0.2c-0.8,0.8-1.8,1.2-2.7,1.7
		c0.5,0.3,0.8,0.2,1.2,0.2c-0.7,0.6-1.8,0.8-2.9,1.2c0.2,0.3,0.4,0.4,0.8,0.5c-1.1,0.6-2.7,0.3-3.2,0.7c0.1,0.3,0.4,0.5,0.8,0.7
		c-1.8,0.1-6.7-0.1-7.6-3.8c1.8-2.1,5.2-4.5,11-7.4c-4.5,1.5-8.5,3.6-11.9,6.4C61.5,32.3,64.2,27.6,66.2,25.7L66.2,25.7z M62,39.3
		L62,39.3c2.8,0,6.3,2.1,6.3,4.1c0,1.8-2.5,3.2-6.3,3.2c-3.8,0-6.3-1.8-6.3-3.5C55.7,41.7,58.8,39.2,62,39.3L62,39.3z M47.7,37.8
		c0.4-0.1,0.6-0.2,0.8-0.5c-1.1-0.3-2.2-0.6-2.9-1.2c0.4,0,0.7,0.1,1.2-0.2c-0.9-0.5-2-0.9-2.7-1.7c0.5,0,1,0,1.2-0.2
		c-0.9-0.5-1.6-1.1-2.2-1.8c0.7,0.1,1,0,1.1-0.1c-0.7-0.7-1.5-1.2-1.9-2.1c0.5,0.2,1,0.2,1.3,0c-0.2-0.5-1.2-0.8-1.7-2
		c0.5,0.1,1.1,0.1,1.2,0c-0.2-1-0.7-1.6-1.1-2.2c1.1,0,2.9,0,2.8-0.1l-0.7-0.7c1.1-0.3,2.3,0,3.1,0.3c0.4-0.3,0-0.7-0.5-1
		c0.9,0.1,1.8,0.3,2.6,0.6c0.4-0.4-0.3-0.7-0.6-1.1c1.5,0.3,2.1,0.7,2.7,1.1c0.4-0.4,0-0.8-0.3-1.2c1.1,0.4,1.7,0.9,2.3,1.5
		c0.2-0.3,0.5-0.5,0.1-1.1c0.8,0.5,1.4,1,1.8,1.6c0.5-0.3,0.3-0.7,0.3-1.1c0.8,0.7,1.3,1.4,2,2.1c0.1-0.1,0.2-0.4,0.3-0.9
		c1.9,1.9,4.7,6.6,0.7,8.5c-3.4-2.8-7.4-4.8-11.9-6.4c5.8,3,9.1,5.4,11,7.4c-0.9,3.8-5.9,3.9-7.6,3.8c0.4-0.2,0.7-0.4,0.8-0.7
		C50.4,38.1,48.8,38.4,47.7,37.8L47.7,37.8z M54.3,40.7c2,0.3-9.4,10.3-9.6,8.1C44.5,42.9,49,39.8,54.3,40.7z M42.4,62.8
		c-2.8-2.2-3.7-8.7,1.5-11.7C46.9,50.3,44.9,63.9,42.4,62.8z M53.1,74.5c-1.6,0.9-5.4,0.6-8-3.3c-1.8-3.2-1.6-6.6-0.3-7.5
		c1.9-1.2,4.9,0.4,7.1,3C53.9,69.1,54.8,73.3,53.1,74.5L53.1,74.5z M50.1,60.3c-2.9-1.9-3.4-6.1-1.2-9.5c2.2-3.4,6.4-4.6,9.2-2.7
		c2.9,1.9,3.4,6.1,1.2,9.5C57.1,60.9,52.9,62.2,50.1,60.3L50.1,60.3z M62,81.1c-3.4,0.1-6.8-2.8-6.8-3.8c-0.1-1.5,4.2-2.7,6.9-2.6
		c2.8-0.1,6.5,0.9,6.5,2.2C68.7,78.2,65.3,81.2,62,81.1z M69.1,66.3c0,3.5-3.1,6.4-6.9,6.4c-3.8,0-6.9-2.8-6.9-6.3c0,0,0,0,0-0.1
		c0-3.5,3.1-6.4,6.9-6.4S69,62.7,69.1,66.3C69.1,66.2,69.1,66.3,69.1,66.3z M64.7,57.2c-2.2-3.4-1.7-7.6,1.2-9.5
		c2.9-1.9,7-0.7,9.2,2.7c2.2,3.4,1.7,7.6-1.2,9.5C71.1,61.8,66.9,60.6,64.7,57.2z M78.7,71.4c-3,4.1-7,4.3-8.5,3.1
		c-1.6-1.5-0.4-6,1.8-8.5l0,0c2.4-2.8,5.1-4.6,6.9-3.2C80.2,64,80.9,68.6,78.7,71.4L78.7,71.4z M81,62.7c-2.5,1.1-4.6-12.5-1.5-11.7
		C84.7,53.9,83.8,60.4,81,62.7z"/>
</g>
</svg>
