<?xml version="1.0" encoding="utf-8"?>
<!-- Generator: Adobe Illustrator 17.1.0, SVG Export Plug-In . SVG Version: 6.00 Build 0)  -->
<!DOCTYPE svg PUBLIC "-//W3C//DTD SVG 1.1//EN" "http://www.w3.org/Graphics/SVG/1.1/DTD/svg11.dtd">
<svg version="1.1" id="レイヤー_1" xmlns="http://www.w3.org/2000/svg" xmlns:xlink="http://www.w3.org/1999/xlink" x="0px"
	 y="0px" viewBox="0 0 125 125" enable-background="new 0 0 125 125" xml:space="preserve">
<text transform="matrix(1 0 0 1 32.497 120.0004)" font-family="'AkzidenzGroteskBQ-XBdCnd'" font-size="18.6316">Vagrant</text>
<g>
	<g>
		<circle fill="#CECECE" cx="62" cy="53" r="51"/>
	</g>
	<g>
		<path fill="#444444" d="M62,88.1c-0.4,0-0.7-0.2-1-0.4c-3.2-1.8-6.3-3.7-9.5-5.5c-0.3-0.2-0.5-0.4-0.7-0.8
			c-3.5-8.4-7-16.9-10.4-25.3c-0.2-0.5-0.3-1-0.3-1.6c0-1.2,0-2.5,0-3.7c0-0.4-0.1-0.7-0.5-0.8c0,0-0.1,0-0.1-0.1
			c-1.7-0.6-2.6-2-3.2-3.6c-1-2.7-2.1-5.3-3.3-8c-0.2-0.5-0.4-1.1-0.3-1.7c0-0.9,0-1.7,0-2.6c0-0.2-0.1-0.5,0.2-0.6
			c0.3,0,0.6,0.1,0.9,0.3c0.7,0.4,1.4,0.8,2.2,1.2c0.3,0.1,0.6,0.3,0.6,0.6c0.2,1.3,0,2.6,0.1,3.8c0,0,0,0.1,0,0.1
			c0.8,0.6,1.7,1,2.5,1.5c0.3,0.2,0.4-0.2,0.4-0.4c0-0.6,0-1.2,0-1.9c0-0.4,0-0.8,0.2-1.1c0.4-0.3,0.7,0,1,0.2c1.6,1,3.3,1.9,5,2.9
			c0.5,0.3,1.1,0.5,1.5,1c0.2,0.2,0.2,0.5,0.2,0.7c0,1.1,0.1,2.2-0.1,3.4c0,0.2,0.1,0.3,0.1,0.5c1.9,4.4,3.5,8.8,5.3,13.2
			c1.7,4.2,3.3,8.4,5,12.5c0.2,0.4,0.2,0.8,0.5,1.2c1.1,0.7,2.3,1.4,3.5,2c0.7,0.5,1.4,0.8,2.1,1.2c2.1,1.3,1.7,0.7,1.7,3
			c0,1.8,0,3.5,0,5.3c0,0.3,0,0.7-0.2,1c-0.2,0.4-0.6,0.4-1,0.2c-0.6-0.3-1.1-0.6-1.7-0.9c-0.8-0.4-0.9-0.3-1,0.5
			c0,0.4,0,0.7,0.1,1.1C62.3,87.2,62.3,87.7,62,88.1z"/>
		<path fill="#515151" d="M65.6,86c0-2.5,0-5,0-7.5c0-0.5-0.1-0.8-0.6-1.1c-1.1-0.6-2.2-1.3-3.3-1.9c0-0.3,0.3-0.4,0.4-0.5
			c0.9-0.5,1.9-1.1,2.8-1.6c0.1-0.1,0.3-0.1,0.3-0.3c0.6-1.6,1.3-3.1,1.9-4.7c0.1-0.3,0.2-0.6,0.5-0.8c0.5,0,0.7-0.4,1.1-0.6
			c1-0.6,2.1-1.2,3.2-1.8c0.2-0.1,0.5-0.2,0.5-0.5c0.1-0.3,0.1-0.6,0.1-0.9c0-2.6,0-5.1,0-7.7c0-1.1,0.5-2,0.9-2.9
			c0.2-0.4,0.5-0.4,0.9-0.2c0.4,0.2,0.8,0.4,1.1,0.6c0.6,0.3,0.8,0.2,0.8-0.5c0-0.9-0.1-1.8,0.1-2.7c0.1-0.4,0.3-0.5,0.6-0.7
			c0.8-0.5,1.6-0.9,2.4-1.4c0.2-0.1,0.4-0.3,0.5-0.5c0.1-2.7,0-5.4,0-8c0.1-0.3,0.4-0.5,0.7-0.6c0.9-0.5,1.9-1.1,2.8-1.6
			c0.2-0.1,0.4-0.2,0.6-0.1c0.9,0.5,1.9,1.1,2.8,1.6c0.3,0.2,0.5,0,0.5-0.3c0-0.4,0-0.9,0-1.3c0-0.7,0-1.3,0.1-2
			c0.5-0.7,1.4-0.9,2-1.4c0.2-0.2,0.5-0.3,0.8-0.5c0.3-0.1,0.5-0.2,0.7,0.1c0.2,0.2,0.2,0.5,0.2,0.8c0,1.1,0,2.1,0,3.2
			c-3.4,8.2-6.7,16.3-10.1,24.5c-2.3,5.5-4.5,11-6.8,16.5c-0.4,1-0.8,1.9-1.2,2.9c-0.1,0.3-0.3,0.5-0.6,0.6
			c-2.3,1.3-4.6,2.6-6.9,3.9C65.6,86.1,65.6,86,65.6,86C65.6,86,65.6,86,65.6,86z"/>
		<path fill="#444444" d="M80.1,39.7c0.1,0.1,0.1,0.3,0.1,0.5c0,2.4,0,4.7,0,7.1c0,0.3,0.1,0.6-0.3,0.8c-0.3,0.2-0.5,0-0.8-0.1
			c-0.6-0.4-1.3-0.7-1.9-1.1c-0.5-0.3-1-0.3-1.5,0c-0.5,0.3-1.1,0.6-1.6,0.9c-0.5,0.3-0.5,0.4,0,0.7c0.6,0.4,1.3,0.8,1.9,1.1
			c0.3,0.1,0.5,0.3,0.5,0.6c0,1.2,0,2.4,0,3.6c0,0.5-0.1,0.6-0.6,0.3c-0.6-0.4-1.2-0.7-1.7-1c-0.3-0.2-0.5-0.2-0.7,0.2
			c-0.4,0.9-0.8,1.8-0.8,2.9c0.1,2.6,0,5.2,0,7.8c0,0.3,0,0.6-0.1,0.8c-0.3,0.1-0.6,0-0.8-0.1c-0.4-0.2-0.9-0.5-1.3-0.7
			c-0.7-0.4-0.8-0.3-1,0.4c-0.3,0.8-0.6,1.5-0.9,2.3c-0.2,0.4-0.4,0.8-0.7,1.1c-0.7,1.6-1.3,3.3-2,4.9c-0.1,0.2-0.1,0.5-0.4,0.6
			c-0.3,0.1-0.6,0-0.9-0.1c-0.7-0.4-1.4-0.8-2.2-1.2c-0.3-0.2-0.6-0.4-0.7-0.7c-0.1-0.3-0.1-0.7-0.1-1c0-2.8,0-5.7,0-8.5
			c0-0.4-0.1-0.8,0.3-1c0.5-0.5,0.6-1.3,0.8-1.9c0.2-0.5,0.4-0.9,0.9-1c1.7-0.6,2.3-1.7,2-3.5c-0.3-2.1,0.3-4.1,1.1-6
			c0.8-1.9,1.5-3.9,2.3-5.9c0.1-0.3,0.2-0.6,0.2-1c0-0.9,0-1.8,0-2.7c0.1-0.2,0.1-0.3,0-0.5c-0.1-0.5,0.1-0.7,0.6-0.5
			c0.4,0.1,0.7,0.3,1,0.5c0.7,0.4,1.5,0.7,2.1,1.3c0.2,0.3,0.2,0.7,0.2,1c0,0.7,0,1.4,0,2.1c0,0.4,0.2,0.6,0.6,0.4
			c0.7-0.4,1.4-0.8,2.1-1.2c0.3-0.2,0.4-0.6,0.4-1c0-0.9,0-1.7,0-2.6c0-0.4,0.1-0.7,0.5-0.7c0.7,0.2,1.3,0.6,1.9,1
			c0.3,0.2,0.6,0.4,1,0.6C79.9,39.2,80.1,39.4,80.1,39.7z"/>
		<path fill="#515151" d="M61.9,60.8c0,2.9,0,5.8,0,8.7c0,0.7,0,1.3,0.1,2c-0.1,0.3-0.3,0.5-0.5,0.6c-0.8,0.4-1.5,0.8-2.2,1.3
			c-0.3,0.2-0.6,0.3-0.9,0.2c-0.7-1.4-1.2-2.9-1.8-4.3c-1.1-2.7-2.2-5.5-3.3-8.2c-1.2-3-2.4-6.1-3.6-9.1c-0.7-1.7-1.3-3.3-2-5
			c-0.1-0.2-0.1-0.4-0.1-0.5c0.2-0.3,0.5-0.2,0.7-0.1c0.8,0.4,1.6,0.9,2.4,1.4c0.2,0.1,0.3,0.2,0.5,0.2c0.8,0.5,1.7,1,2.6,1.5
			c0.5,0.3,0.7,0.2,0.7-0.4c0-0.7,0-1.5,0-2.2c0-0.3-0.1-0.6-0.3-0.7c-1-0.6-2-1.2-3-1.7c-1,0.3-1.8,1-2.7,1.5
			C48,46,47.8,46.2,47.4,46c0-1,0-2,0-2.9c0-0.4,0.1-0.9-0.1-1.3c0-0.3,0.3-0.4,0.5-0.5c1.6-1,3.3-1.9,5-2.8
			c0.3-0.1,0.5-0.3,0.7-0.5c0.3-0.2,0.7-0.4,1.1-0.3c0.2,0.6,0.1,1.2,0.1,1.7c-0.1,1.7,0.3,3.3,0.9,4.9
			C57.7,49.8,59.8,55.3,61.9,60.8z"/>
		<path fill="#7F7F7F" d="M54.5,37.7c-2.3,1.3-4.6,2.7-6.9,4c-0.1,0.1-0.2,0.1-0.3,0.1c-2.4-1.4-4.8-2.8-7.2-4.1c0,0-0.1,0-0.1,0
			c-0.4,0-0.7-0.1-1-0.3c-0.6-0.4-1.2-0.7-1.8-1c-0.4-0.2-0.6-0.4-0.8-0.8c-1.1-0.8-2.4-1.3-3.5-2.1c0.9-0.8,2-1.3,3-1.9
			c1-0.6,2.1-1.1,3.1-1.8c0.6-0.4,1.1-0.4,1.8,0c2.7,1.6,5.4,3,8,4.6C50.8,35.5,52.8,36.4,54.5,37.7z"/>
		<path fill="#7F7F7F" d="M80.1,39.7c-1.1-0.6-2.2-1.2-3.2-1.9c-0.2-0.1-0.3-0.1-0.4,0.1c-0.8,0.9-2,1.3-3,1.9
			c-0.2,0.2-0.5,0.1-0.7-0.1c-0.9-0.5-1.9-1.1-2.8-1.6c-0.6-0.3-0.6-0.3-0.6,0.3c0,0.1,0,0.2-0.1,0.3c-0.2-0.7,0-1.1,0.7-1.5
			c2.6-1.5,5.2-3,7.8-4.5c0.7-0.4,1.3-0.8,2-1.2c0.3-0.2,0.6-0.2,1,0c0.8,0.5,1.7,0.9,2.5,1.5c0.2,0.1,0.4,0.3,0.7,0.2
			c1.1-0.8,2.3-1.5,3.5-2c0.4-0.1,0.7,0.3,1,0.5c0.8,0.5,1.7,1,2.6,1.5c0.2,0.1,0.4,0.1,0.4,0.4c-0.2,0.1-0.3,0.1-0.5,0.1
			c-1.1,0.6-2.2,1.2-3.2,1.9c-0.2,0.4-0.5,0.6-0.8,0.8c-0.6,0.3-1.2,0.7-1.8,1c-0.3,0.2-0.6,0.3-1,0.2c-1.1,0.5-2.2,1.2-3.3,1.8
			C80.5,39.5,80.3,39.6,80.1,39.7z"/>
		<path fill="#444444" d="M87.3,31.2c0,0.2-0.2,0.3-0.3,0.4c-0.9,0.5-1.8,1-2.7,1.6c-0.2,0.1-0.3,0.2-0.5,0c0-1,0-2.1,0-3.1
			c0-0.8,0-0.8,0.7-0.4C85.5,30.2,86.4,30.7,87.3,31.2z"/>
		<path fill="#515151" d="M65.6,86c0,0,0,0.1,0,0.1c-1.2,0.6-2.3,1.5-3.6,2c-0.1-1.2-0.2-2.4-0.1-3.6c0-0.4,0.3-0.3,0.5-0.2
			c0.9,0.5,1.7,1,2.6,1.5C65.2,85.9,65.4,86.1,65.6,86z"/>
		<path fill="#979797" d="M90.8,33.7c0.1-0.1,0.3-0.2,0.5-0.1c0,1.1,0,2.2,0,3.2c0,0.2,0,0.5-0.1,0.7c-0.3-0.9-0.1-1.9-0.1-2.8
			C91.1,34.4,91.1,34,90.8,33.7z"/>
		<path fill="#7F7F7F" d="M58.4,73.5c1.1-0.8,2.3-1.5,3.6-2.1c1.2,0.7,2.3,1.3,3.5,2c-0.7,0.6-1.5,1-2.3,1.4
			c-0.5,0.3-0.9,0.6-1.4,0.7C60.6,74.9,59.4,74.3,58.4,73.5z"/>
		<path fill="#7F7F7F" d="M47.4,58.8c1,0.6,2,1.2,3.1,1.8c0.4,0.2,0.4,0.4,0,0.6c-0.9,0.5-1.8,1-2.8,1.6c-0.3,0.2-0.6,0.1-0.9,0
			c-1-0.6-2-1.2-3.1-1.8c0-0.4,0.2-0.6,0.5-0.8c0.7-0.4,1.4-0.8,2.1-1.2C46.7,58.8,47.1,58.7,47.4,58.8z"/>
		<path fill="#7F7F7F" d="M51,48c-0.7-0.1-1.3-0.6-1.9-0.9c-0.5-0.3-1-0.7-1.6-0.8c-0.1-0.1-0.2-0.1-0.1-0.3c1-0.6,2-1.1,3-1.7
			c0.2-0.1,0.4-0.2,0.6-0.3c0.2,0.2,0.3,0.5,0.3,0.8c0,0.9,0,1.7,0,2.6C51.3,47.7,51.3,47.9,51,48z"/>
		<path fill="#7F7F7F" d="M40.1,37.7c0,1.2,0,2.3,0,3.5c0,0.6-0.1,0.7-0.6,0.4c-1-0.6-2.1-1.1-3-1.8c0.5-0.8,1.4-1.1,2.2-1.6
			C39.1,37.8,39.5,37.5,40.1,37.7L40.1,37.7z"/>
		<path fill="#515151" d="M47.4,58.8c-1.3,0.6-2.5,1.3-3.6,2.1c-0.2-1.2-0.1-2.5-0.1-3.7c0-0.5,0.3-0.4,0.6-0.2
			C45.3,57.6,46.4,58.2,47.4,58.8z"/>
		<path fill="#515151" d="M40.1,37.7c-1.2,0.7-2.4,1.3-3.6,2c0-1.4,0-2.7,0-4.1C37.6,36.3,38.8,37,40.1,37.7z"/>
		<path fill="#515151" d="M51,75.6c0-0.5,0-1,0-1.4c0-0.4,0.1-0.6,0.5-0.3c0.9,0.5,1.7,1,2.6,1.5c0.3,0.2,0.3,0.3,0,0.5
			c-0.9,0.5-1.8,1-2.7,1.6c-0.3,0.2-0.5,0.1-0.5-0.3C51,76.6,51,76.1,51,75.6L51,75.6z"/>
		<path fill="#7F7F7F" d="M61.9,82c0,0.5,0,1,0,1.6c0,0.3,0,0.5-0.4,0.3c-0.9-0.5-1.9-1.1-2.8-1.6c-0.4-0.2-0.3-0.3,0-0.5
			c0.9-0.5,1.8-1,2.7-1.6c0.3-0.2,0.5-0.1,0.5,0.3C61.9,80.9,61.9,81.4,61.9,82C61.9,82,61.9,82,61.9,82z"/>
		<path fill="#7F7F7F" d="M76.6,50.3c-1.1-0.6-2.2-1.2-3.2-1.8c-0.3-0.2-0.4-0.3,0-0.5c1-0.6,1.9-1.1,2.9-1.7
			c0.3-0.2,0.5-0.1,0.8,0.1c1,0.6,2,1.1,3,1.7c0.1,0.3-0.2,0.4-0.3,0.5C78.6,49.1,77.6,49.7,76.6,50.3z"/>
		<path fill="#7F7F7F" d="M67.9,67.9c0.5-1.4,1.1-2.8,1.6-4.1c0.1-0.4,0.3-0.4,0.6-0.2c0.9,0.5,1.7,1,2.6,1.5
			c-0.6,0.6-1.4,0.9-2.1,1.3C69.7,66.9,68.8,67.5,67.9,67.9z"/>
		<path fill="#444444" d="M84,37.6c1.2-0.6,2.4-1.4,3.6-2c0,1.2,0,2.4,0,3.5c0,0.2,0.1,0.4-0.1,0.5c-0.2,0.1-0.3-0.1-0.5-0.2
			c-0.9-0.5-1.9-1.1-2.8-1.7C84,37.8,83.9,37.7,84,37.6z"/>
		<path fill="#444444" d="M80.2,58.7c0,0.5,0,1,0,1.5c0,0.4-0.1,0.6-0.5,0.3c-0.9-0.5-1.7-1-2.6-1.5c-0.4-0.2-0.4-0.5,0-0.7
			c0.9-0.5,1.7-1,2.6-1.5c0.3-0.2,0.5-0.1,0.5,0.3C80.2,57.7,80.2,58.2,80.2,58.7L80.2,58.7z"/>
		<path fill="#444444" d="M69.5,75.7c-0.1-0.2,0.1-0.3,0.3-0.4c0.9-0.5,1.8-1,2.6-1.5c0.2-0.1,0.5-0.3,0.5,0.2c0,1.1,0,2.3,0,3.4
			c0,0.1,0,0.2-0.2,0.2c-0.2,0.1-0.4,0.1-0.6,0c-0.8-0.4-1.5-0.9-2.3-1.3C69.6,76.2,69.4,76,69.5,75.7z"/>
		<path fill="#7F7F7F" d="M69.5,75.7c1.1,0.6,2.2,1.2,3.2,1.9c-0.1,0.2-0.2,0.3-0.4,0.4c-0.9,0.5-1.8,1-2.6,1.5
			c-0.3,0.2-0.5,0.2-0.5-0.2c0-1.1,0-2.1,0-3.2C69.3,76,69.3,75.8,69.5,75.7z"/>
		<path fill="#515151" d="M72.7,39.7c0.9-0.1,1.6-0.8,2.4-1.2c0.4-0.2,0.7-0.4,1.1-0.6c0.2-0.1,0.4-0.2,0.7,0
			c-0.3,0-0.3,0.3-0.3,0.5c0,1,0,1.9,0,2.9c0,0.5-0.1,0.8-0.6,1.1c-0.9,0.5-1.8,1-2.6,1.5c-0.4,0.2-0.5,0.1-0.5-0.3
			c0-0.9,0-1.9,0-2.8C72.9,40.3,72.9,40,72.7,39.7z"/>
		<path fill="#444444" d="M51,48c0-1.3,0-2.6,0-4c1.2,0.5,2.3,1.3,3.4,1.9c0.2,0.1,0.2,0.2,0.2,0.4c0,1.2,0,2.3,0,3.5
			c0,0.2-0.1,0.5-0.4,0.3c-1.1-0.6-2.1-1.2-3.1-1.9C51.1,48.2,51.1,48.1,51,48z"/>
	</g>
</g>
</svg>
