<?xml version="1.0" encoding="utf-8"?>
<!-- Generator: Adobe Illustrator 17.1.0, SVG Export Plug-In . SVG Version: 6.00 Build 0)  -->
<!DOCTYPE svg PUBLIC "-//W3C//DTD SVG 1.1//EN" "http://www.w3.org/Graphics/SVG/1.1/DTD/svg11.dtd">
<svg version="1.1" id="レイヤー_1" xmlns="http://www.w3.org/2000/svg" xmlns:xlink="http://www.w3.org/1999/xlink" x="0px"
	 y="0px" viewBox="0 0 125 125" enable-background="new 0 0 125 125" xml:space="preserve">
<text transform="matrix(1 0 0 1 42.7817 120.0004)" font-family="'AkzidenzGroteskBQ-XBdCnd'" font-size="18.6316">Swift</text>
<g>
	<g>
		<circle fill="#CECECE" cx="62" cy="53" r="51"/>
	</g>
	<path fill="#444444" d="M67.6,28.3c0,0,12,7.1,15.1,18.5c2.8,10.2,0.6,15.1,0.6,15.1s1.7,1.6,3.4,5.6c2.5,5.9,0.6,9,0.6,9
		s-0.2-4.2-6.2-5c-5.5-0.8-7.5,4.7-17.9,4.5c-6-0.2-18.5-1.6-29.1-16.8c5.1,2.9,11.8,7.4,20.1,6.7s10.1-3.4,10.1-3.4
		s-16-13-24.6-26.9c6.5,5.7,22.8,17.1,22.4,16.8c-5-3.8-16.2-19.6-16.2-19.6s24.3,20.8,26.3,20.7C72.9,51.7,77,42.8,67.6,28.3
		L67.6,28.3z"/>
</g>
</svg>
