<?xml version="1.0" encoding="utf-8"?>
<!-- Generator: Adobe Illustrator 17.1.0, SVG Export Plug-In . SVG Version: 6.00 Build 0)  -->
<!DOCTYPE svg PUBLIC "-//W3C//DTD SVG 1.1//EN" "http://www.w3.org/Graphics/SVG/1.1/DTD/svg11.dtd">
<svg version="1.1" id="レイヤー_1" xmlns="http://www.w3.org/2000/svg" xmlns:xlink="http://www.w3.org/1999/xlink" x="0px"
	 y="0px" viewBox="0 0 125 125" enable-background="new 0 0 125 125" xml:space="preserve">
<text transform="matrix(1 0 0 1 33.2797 120.0004)" font-family="'AkzidenzGroteskBQ-XBdCnd'" font-size="18.6316">arduino</text>
<g>
	<g>
		<circle fill="#CECECE" cx="62" cy="53" r="51"/>
	</g>
	<g>
		<g id="g4_1_">
			<path id="path6_1_" fill="none" stroke="#444444" stroke-width="4" d="M46.2,41c-6.9,0-12.5,5.4-12.5,12s5.6,12,12.5,12
				c16.3,0.9,14.6-24,31.7-24c6.9,0,12.5,5.4,12.5,12s-5.6,12-12.5,12C61.6,65.8,63.3,41,46.2,41"/>
		</g>
		<g id="g8_1_" transform="translate(0,10)">
			<g id="text10_1_">
				<path id="path3075_1_" fill="#444444" stroke="#444444" d="M76.5,46v-2.8h-2.8V42h2.8v-2.8h1.2V42h2.8v1.2h-2.8V46H76.5z"/>
			</g>
		</g>
		<g id="g8-1_1_" transform="translate(-365.79452,0.52773446)">
			<g id="text10-7_1_" transform="scale(1.5645974,0.63914206)">
				<path id="path3078_1_" fill="#444444" stroke="#444444" d="M261.3,82.2v-1.5h4.6v1.5H261.3z"/>
			</g>
			<g id="text12-4_1_">
			</g>
		</g>
	</g>
</g>
</svg>
