<?xml version="1.0" encoding="utf-8"?>
<!-- Generator: Adobe Illustrator 17.1.0, SVG Export Plug-In . SVG Version: 6.00 Build 0)  -->
<!DOCTYPE svg PUBLIC "-//W3C//DTD SVG 1.1//EN" "http://www.w3.org/Graphics/SVG/1.1/DTD/svg11.dtd">
<svg version="1.1" id="レイヤー_1" xmlns="http://www.w3.org/2000/svg" xmlns:xlink="http://www.w3.org/1999/xlink" x="0px"
	 y="0px" viewBox="0 0 125 125" enable-background="new 0 0 125 125" xml:space="preserve">
<text transform="matrix(1 0 0 1 47.7499 120.0004)" font-family="'AkzidenzGroteskBQ-XBdCnd'" font-size="18.6316">C++</text>
<g>
	<g>
		<circle fill="#CECECE" cx="62" cy="53" r="51"/>
	</g>
	<g>
		<path fill="#444444" d="M64.2,53.5c0,10-8.1,18-18.2,18c-9.8,0-17.9-8.1-17.9-18c0-10.2,8.1-18,18-18.1
			C56.1,35.3,64.2,43.5,64.2,53.5z"/>
		<path fill="#444444" d="M66.2,35.7c4.9,0,9.7,0,14.6,0c0,11.5,0,23,0,34.6c-4.9,0-9.7,0-14.6,0C66.2,58.8,66.2,47.3,66.2,35.7z"/>
		<path fill="#444444" d="M82,49.6c0-4.6,0-9.2,0-13.9c4.7,0,9.3,0,13.8,0C91.3,40.3,86.7,45,82,49.6z"/>
		<path fill="#444444" d="M92.1,60.9c-3.3,0-6.6,0-9.9,0c0-3.4,0-6.7,0-10.1c3.3,0,6.6,0,9.9,0C92.1,54.1,92.1,57.5,92.1,60.9z"/>
	</g>
</g>
</svg>
