<?xml version="1.0" encoding="utf-8"?>
<!-- Generator: Adobe Illustrator 17.1.0, SVG Export Plug-In . SVG Version: 6.00 Build 0)  -->
<!DOCTYPE svg PUBLIC "-//W3C//DTD SVG 1.1//EN" "http://www.w3.org/Graphics/SVG/1.1/DTD/svg11.dtd">
<svg version="1.1" id="レイヤー_1" xmlns="http://www.w3.org/2000/svg" xmlns:xlink="http://www.w3.org/1999/xlink" x="0px"
	 y="0px" viewBox="0 0 125 125" enable-background="new 0 0 125 125" xml:space="preserve">
<text transform="matrix(1 0 0 1 24.5419 120.0004)" font-family="'AkzidenzGroteskBQ-XBdCnd'" font-size="18.6316">Illustrator</text>
<g>
	<g>
		<circle fill="#444444" cx="62" cy="53.2" r="51"/>
	</g>
	<path fill="#CECECE" d="M71.4,43.9c1.3,0,2.4-1.1,2.4-2.4c0-1.3-1.1-2.4-2.4-2.4c-1.3,0-2.4,1.1-2.4,2.4
		C68.9,42.8,70,43.9,71.4,43.9z"/>
	<path fill="#CECECE" d="M69,46h4.7v17.7H69V46z"/>
	<path fill="#CECECE" d="M54,57.8h6.4l1.7,5.9h4.8l-7-23.3h-5.9v2.3l-6.1,21h4.4L54,57.8z M57.2,44.6l2.4,9.1h-4.7L57.2,44.6z"/>
	<path fill="#CECECE" d="M35.4,27.2v52.1h53.2V27.2H35.4z M84.6,75.2H39.5V31.3h45.1V75.2z"/>
</g>
</svg>
