<?xml version="1.0" encoding="utf-8"?>
<!-- Generator: Adobe Illustrator 17.1.0, SVG Export Plug-In . SVG Version: 6.00 Build 0)  -->
<!DOCTYPE svg PUBLIC "-//W3C//DTD SVG 1.1//EN" "http://www.w3.org/Graphics/SVG/1.1/DTD/svg11.dtd">
<svg version="1.1" id="レイヤー_1" xmlns="http://www.w3.org/2000/svg" xmlns:xlink="http://www.w3.org/1999/xlink" x="0px"
	 y="0px" viewBox="0 0 125 125" enable-background="new 0 0 125 125" xml:space="preserve">
<text transform="matrix(1 0 0 1 29.4262 120.0004)" font-family="'AkzidenzGroteskBQ-XBdCnd'" font-size="18.6316">CakePHP</text>
<g>
	<g>
		<circle fill="#CECECE" cx="62" cy="53" r="51"/>
	</g>
	<g id="Xq0pWK_2_">
		<g>
			<path fill="#444444" d="M62.5,50c0,3.1,0,6,0,9.1c-1.6,0-3,0.1-4.5,0c-4.4-0.2-8.8-0.7-13.1-1.7c-3.2-0.7-6.3-1.6-9.1-3.4
				c-2-1.3-3.2-2.9-3-5.4c0.2-2.4,0.1-4.8,0-7.1c0-1.4,0.5-2.5,1.5-3.5c2.1-1.9,4.6-2.8,7.2-3.6c5.1-1.6,10.5-2.2,15.8-2.6
				c5.1-0.3,10.2-0.2,15.3,0.4c5,0.6,10,1.5,14.7,3.6c0.6,0.3,1.2,0.6,1.8,1c2,1.2,3.2,2.9,3,5.4c-0.2,2.3-0.1,4.6,0,6.9
				c0.1,1.8-0.7,3.2-2.1,4.1c-1.2,0.8-2.6,1.5-3.9,2.2c-0.3,0.1-0.7,0.1-1.1,0c-7.2-1.8-14.4-3.5-21.6-5.3
				C63.2,50.2,62.9,50.1,62.5,50z"/>
			<path fill="#444444" d="M62.5,77.5c-2.1,0-4.1,0.1-6,0c-5-0.3-10-0.9-14.8-2.5c-2.1-0.7-4.1-1.6-6-2.6c-1.9-1-3-2.7-2.8-5.1
				c0.2-2.2,0-4.4,0-6.7c1.9,3,4.9,4.1,7.9,5.1c4.9,1.6,10,2.4,15.1,2.7c1.9,0.1,3.9,0.1,5.8,0.3c0.3,0,0.7,0.4,0.8,0.5
				C62.5,71.9,62.5,74.7,62.5,77.5z"/>
			<path fill="#444444" d="M62.6,59.4c2.1,0.5,4.1,1,6,1.5c5.5,1.4,11,2.7,16.5,4.1c0.3,0.1,0.6,0.1,0.8,0.1c2-0.4,5.1-2.6,6.2-4.6
				c0,0.3,0,0.6,0,0.8c0,2.2,0,4.4,0,6.6c0,1.5-0.5,2.7-1.6,3.5c-1.4,1-2.9,1.8-4.4,2.6c-0.3,0.2-0.9,0.1-1.3,0
				c-6.8-1.7-13.6-3.3-20.3-5c-2-0.5-2-0.5-2-2.5c0-2,0-3.9,0-5.9C62.6,60.2,62.6,59.8,62.6,59.4z"/>
		</g>
	</g>
</g>
</svg>
