<?xml version="1.0" encoding="utf-8"?>
<!-- Generator: Adobe Illustrator 17.1.0, SVG Export Plug-In . SVG Version: 6.00 Build 0)  -->
<!DOCTYPE svg PUBLIC "-//W3C//DTD SVG 1.1//EN" "http://www.w3.org/Graphics/SVG/1.1/DTD/svg11.dtd">
<svg version="1.1" id="レイヤー_1" xmlns="http://www.w3.org/2000/svg" xmlns:xlink="http://www.w3.org/1999/xlink" x="0px"
	 y="0px" viewBox="0 0 600.9 343.7" enable-background="new 0 0 600.9 343.7" xml:space="preserve">
<path fill="#231815" d="M77.7,131.5H2.5L36.1,13.5C38.2,6.1,45,1,52.7,1h25V131.5z"/>
<rect x="82.2" y="1" fill="#231815" width="53.2" height="130.5"/>
<g>
	<rect x="519.5" y="0.5" fill="#231815" width="81" height="131"/>
	<path fill="#231815" d="M503.4,26.5H583V0.9h-62.6c-9.4,0-17,7.6-17,17V26.5z"/>
	<path fill="#231815" d="M503.4,131.6H583v-25.5h-62.6c-9.4,0-17,7.6-17,17V131.6z"/>
</g>
<rect x="77.5" y="-0.5" fill="none" width="5" height="131"/>
<path fill="#231815" d="M233.9,131.5h-75.1l33.6-117.9C194.4,6.1,201.2,1,208.9,1h25V131.5z"/>
<rect x="238.4" y="1" fill="#231815" width="53.2" height="130.5"/>
<rect x="233.5" y="-0.5" fill="none" width="5" height="131"/>
<rect x="388.5" y="-0.5" fill="none" width="5" height="131"/>
<line fill="none" stroke="#FF947B" stroke-miterlimit="10" x1="446" y1="130.5" x2="446" y2="0.5"/>
<rect x="525.5" y="-0.5" fill="none" width="4" height="131"/>
<path fill="#231815" d="M77.7,274.2H2.5l33.6-117.9c2.1-7.4,8.9-12.6,16.6-12.6h25V274.2z"/>
<rect x="82.2" y="143.7" fill="#231815" width="53.2" height="130.5"/>
<rect x="77.5" y="142.5" fill="none" width="5" height="130"/>
<path fill="#231815" d="M233.9,274.2h-75.1l33.6-117.9c2.1-7.4,8.9-12.6,16.6-12.6h25V274.2z"/>
<rect x="238.4" y="143.7" fill="#231815" width="53.2" height="130.5"/>
<rect x="233.5" y="142.5" fill="none" width="5" height="130"/>
<path fill="#231815" d="M388.6,274.2h-75.1L347,156.2c2.1-7.4,8.9-12.6,16.6-12.6h25V274.2z"/>
<rect x="393.1" y="143.7" fill="#231815" width="53.2" height="130.5"/>
<rect x="388.5" y="142.5" fill="none" width="5" height="130"/>
<path fill="#231815" d="M543.3,274.2h-75.1l33.6-117.9c2.1-7.4,8.9-12.6,16.6-12.6h25V274.2z"/>
<rect x="547.8" y="143.7" fill="#231815" width="53.2" height="130.5"/>
<rect x="543.5" y="142.5" fill="none" width="4" height="130"/>
<path fill="#231815" d="M448.2,0.9l-52.1,0v65.4h-5l0-65.3L338,1l1.2,118c2.1,7.4,8.9,12.6,16.6,12.6l92.4,0V0.9z"/>
<text transform="matrix(1 0 0 1 4.9867 340.2791)" font-family="'Helvetica'" font-size="42.7653">WEB PORTFOLIO</text>
</svg>
