<?xml version="1.0" encoding="utf-8"?>
<!-- Generator: Adobe Illustrator 17.1.0, SVG Export Plug-In . SVG Version: 6.00 Build 0)  -->
<!DOCTYPE svg PUBLIC "-//W3C//DTD SVG 1.1//EN" "http://www.w3.org/Graphics/SVG/1.1/DTD/svg11.dtd">
<svg version="1.1" id="レイヤー_1" xmlns="http://www.w3.org/2000/svg" xmlns:xlink="http://www.w3.org/1999/xlink" x="0px"
	 y="0px" viewBox="-372.1 1207 1908.1 327.3" enable-background="new -372.1 1207 1908.1 327.3" xml:space="preserve">
<rect x="596.9" y="583.4" fill="none" width="12.8" height="334.9"/>
<rect x="1343.3" y="583.4" fill="none" width="10.2" height="334.9"/>
<g>
	<g>
		<path fill="#231815" d="M-186.5,1532.1h-185.6l82.9-291.2c5.2-18.3,22-31,41-31h61.6V1532.1z"/>
		<rect x="-175.4" y="1209.9" fill="#231815" width="131.3" height="322.4"/>
	</g>
	<g>
		<path fill="#231815" d="M208.1,1360l130.2-0.3v-108c0-23.1-18.8-41.9-41.9-41.9h-88.3V1360z"/>
		<path fill="#231815" d="M208.1,1532.5h130.2V1413c0-23.1-18.8-41.9-41.9-41.9h-88.3V1532.5z"/>
		<path fill="#231815" d="M195.7,1532.2H10.2L93.1,1241c5.2-18.3,22-31,41-31h61.6V1532.2z"/>
	</g>
	<path fill="#231815" d="M1095.7,1209.8l-128.8-0.1v161.4h-12.2l0.1-161.3l-131.3,0.3l3.1,291.5c5.2,18.3,22,31,41,31l228.1-0.1
		V1209.8z"/>
	<path fill="#231815" d="M487,1532.5h87.9v-322.7H487c-23.1,0-41.9,18.8-41.9,41.9v238.9C445.1,1513.7,463.8,1532.5,487,1532.5z"/>
	<path fill="#231815" d="M673.9,1532.5H586v-322.7h87.9c23.1,0,41.9,18.8,41.9,41.9v238.9C715.8,1513.7,697.1,1532.5,673.9,1532.5z"
		/>
	<rect x="-187" y="1206" fill="none" width="12" height="323"/>
	<rect x="195" y="1202" fill="none" width="12" height="323"/>
	<rect x="956" y="1199" fill="none" width="10" height="323"/>
	<rect x="1341" y="1206" fill="none" width="12" height="323"/>
	<path fill="#231815" d="M1325.1,1533.4h-104.8l82.9-291.2c5.2-18.3,22-31,41-31l72.7-1.4L1325.1,1533.4z"/>
	<path fill="#231815" d="M1481.9,1371.6h-104.7l36.8-129.4c5.2-18.3,22-31,41-31l72.7-1.4L1481.9,1371.6z"/>
	<path fill="#231815" d="M1260.1,1371.6h-104.7l36.8-129.4c5.2-18.3,22-31,41-31l72.7-1.4L1260.1,1371.6z"/>
</g>
</svg>
