<?xml version="1.0" encoding="utf-8"?>
<!-- Generator: Adobe Illustrator 17.1.0, SVG Export Plug-In . SVG Version: 6.00 Build 0)  -->
<!DOCTYPE svg PUBLIC "-//W3C//DTD SVG 1.1//EN" "http://www.w3.org/Graphics/SVG/1.1/DTD/svg11.dtd">
<svg version="1.1" id="レイヤー_1" xmlns="http://www.w3.org/2000/svg" xmlns:xlink="http://www.w3.org/1999/xlink" x="0px"
	 y="0px" viewBox="0 0 1280 800" enable-background="new 0 0 1280 800" xml:space="preserve">
<g>
	<g>
		<defs>
			<rect id="SVGID_1_" x="376.8" y="0.4" width="526.4" height="799.6"/>
		</defs>
		<clipPath id="SVGID_2_">
			<use xlink:href="#SVGID_1_"  overflow="visible"/>
		</clipPath>
		<g clip-path="url(#SVGID_2_)">
			<line fill="none" stroke="#B7B7B7" stroke-width="0.5" stroke-miterlimit="10" x1="502.3" y1="-627.3" x2="-748.7" y2="1454.8"/>
			<line fill="none" stroke="#B7B7B7" stroke-width="0.5" stroke-miterlimit="10" x1="525.4" y1="-613.4" x2="-725.6" y2="1468.7"/>
			<line fill="none" stroke="#B7B7B7" stroke-width="0.5" stroke-miterlimit="10" x1="547.7" y1="-600.1" x2="-703.5" y2="1482.1"/>
			<line fill="none" stroke="#B7B7B7" stroke-width="0.5" stroke-miterlimit="10" x1="626.2" y1="-552.8" x2="-624.8" y2="1529.2"/>
			<line fill="none" stroke="#B7B7B7" stroke-width="0.5" stroke-miterlimit="10" x1="941.6" y1="-363.3" x2="-309.5" y2="1718.7"/>
			
				<line fill="none" stroke="#B7B7B7" stroke-width="0.5" stroke-miterlimit="10" x1="1110.8" y1="-261.6" x2="-140.3" y2="1820.4"/>
			<line fill="none" stroke="#B7B7B7" stroke-width="0.5" stroke-miterlimit="10" x1="514.3" y1="-620" x2="-736.8" y2="1462"/>
			<line fill="none" stroke="#B7B7B7" stroke-width="0.5" stroke-miterlimit="10" x1="536.5" y1="-606.8" x2="-714.5" y2="1475.4"/>
			<line fill="none" stroke="#B7B7B7" stroke-width="0.5" stroke-miterlimit="10" x1="569.8" y1="-586.7" x2="-681.2" y2="1495.4"/>
			<line fill="none" stroke="#B7B7B7" stroke-width="0.5" stroke-miterlimit="10" x1="688.7" y1="-515.4" x2="-562.4" y2="1566.7"/>
			
				<line fill="none" stroke="#B7B7B7" stroke-width="0.5" stroke-miterlimit="10" x1="1043.3" y1="-302.2" x2="-207.8" y2="1779.9"/>
			<line fill="none" stroke="#B7B7B7" stroke-width="0.5" stroke-miterlimit="10" x1="1212.5" y1="-200.5" x2="-38.6" y2="1881.6"/>
			<line fill="none" stroke="#B7B7B7" stroke-width="0.5" stroke-miterlimit="10" x1="604" y1="-566.2" x2="-647" y2="1516"/>
			<line fill="none" stroke="#B7B7B7" stroke-width="0.5" stroke-miterlimit="10" x1="649.4" y1="-539" x2="-601.8" y2="1543.2"/>
			<line fill="none" stroke="#B7B7B7" stroke-width="0.5" stroke-miterlimit="10" x1="773.2" y1="-464.5" x2="-477.8" y2="1617.5"/>
			<line fill="none" stroke="#B7B7B7" stroke-width="0.5" stroke-miterlimit="10" x1="975.8" y1="-342.8" x2="-275.3" y2="1739.3"/>
			<line fill="none" stroke="#B7B7B7" stroke-width="0.5" stroke-miterlimit="10" x1="1397.9" y1="-89.1" x2="146.9" y2="1992.9"/>
			<line fill="none" stroke="#B7B7B7" stroke-width="0.5" stroke-miterlimit="10" x1="1487.7" y1="-35.2" x2="236.6" y2="2046.9"/>
			<line fill="none" stroke="#B7B7B7" stroke-width="0.5" stroke-miterlimit="10" x1="638.2" y1="-545.7" x2="-612.8" y2="1536.5"/>
			<line fill="none" stroke="#B7B7B7" stroke-width="0.5" stroke-miterlimit="10" x1="705.7" y1="-505.1" x2="-545.3" y2="1577"/>
			<line fill="none" stroke="#B7B7B7" stroke-width="0.5" stroke-miterlimit="10" x1="823.6" y1="-434.2" x2="-427.4" y2="1647.9"/>
			
				<line fill="none" stroke="#B7B7B7" stroke-width="0.5" stroke-miterlimit="10" x1="1093.7" y1="-271.9" x2="-157.3" y2="1810.2"/>
			<line fill="none" stroke="#B7B7B7" stroke-width="0.5" stroke-miterlimit="10" x1="1465.4" y1="-48.6" x2="214.4" y2="2033.5"/>
			<line fill="none" stroke="#B7B7B7" stroke-width="0.5" stroke-miterlimit="10" x1="1544.1" y1="-1.3" x2="293" y2="2080.8"/>
			<line fill="none" stroke="#B7B7B7" stroke-width="0.5" stroke-miterlimit="10" x1="671.5" y1="-525.6" x2="-579.5" y2="1556.4"/>
			<line fill="none" stroke="#B7B7B7" stroke-width="0.5" stroke-miterlimit="10" x1="756.2" y1="-474.8" x2="-494.9" y2="1607.3"/>
			<line fill="none" stroke="#B7B7B7" stroke-width="0.5" stroke-miterlimit="10" x1="891.1" y1="-393.6" x2="-359.9" y2="1688.4"/>
			<line fill="none" stroke="#B7B7B7" stroke-width="0.5" stroke-miterlimit="10" x1="1161.2" y1="-231.4" x2="-89.8" y2="1850.7"/>
			<line fill="none" stroke="#B7B7B7" stroke-width="0.5" stroke-miterlimit="10" x1="1510.8" y1="-21.3" x2="259.7" y2="2060.7"/>
			<line fill="none" stroke="#B7B7B7" stroke-width="0.5" stroke-miterlimit="10" x1="1600.5" y1="32.6" x2="349.5" y2="2114.7"/>
			<line fill="none" stroke="#B7B7B7" stroke-width="0.5" stroke-miterlimit="10" x1="739.1" y1="-485" x2="-512" y2="1597"/>
			<line fill="none" stroke="#B7B7B7" stroke-width="0.5" stroke-miterlimit="10" x1="806.6" y1="-444.5" x2="-444.4" y2="1637.6"/>
			<line fill="none" stroke="#B7B7B7" stroke-width="0.5" stroke-miterlimit="10" x1="992.8" y1="-332.5" x2="-258.2" y2="1749.6"/>
			<line fill="none" stroke="#B7B7B7" stroke-width="0.5" stroke-miterlimit="10" x1="1245.9" y1="-180.6" x2="-5.3" y2="1901.6"/>
			<line fill="none" stroke="#B7B7B7" stroke-width="0.5" stroke-miterlimit="10" x1="1555.2" y1="5.4" x2="304.1" y2="2087.4"/>
			<line fill="none" stroke="#B7B7B7" stroke-width="0.5" stroke-miterlimit="10" x1="1634.7" y1="53.1" x2="383.6" y2="2135.2"/>
			
				<line fill="none" stroke="#B7B7B7" stroke-width="0.5" stroke-miterlimit="10" x1="1076.6" y1="-282.2" x2="-174.5" y2="1799.9"/>
			<line fill="none" stroke="#B7B7B7" stroke-width="0.5" stroke-miterlimit="10" x1="1195.4" y1="-210.8" x2="-55.6" y2="1871.3"/>
			<line fill="none" stroke="#B7B7B7" stroke-width="0.5" stroke-miterlimit="10" x1="1330.4" y1="-129.7" x2="79.4" y2="1952.3"/>
			<line fill="none" stroke="#B7B7B7" stroke-width="0.5" stroke-miterlimit="10" x1="1533" y1="-8" x2="281.9" y2="2074.1"/>
			<line fill="none" stroke="#B7B7B7" stroke-width="0.5" stroke-miterlimit="10" x1="1713.3" y1="100.4" x2="462.2" y2="2182.5"/>
			<line fill="none" stroke="#B7B7B7" stroke-width="0.5" stroke-miterlimit="10" x1="1758.6" y1="127.6" x2="507.5" y2="2209.7"/>
			<line fill="none" stroke="#B7B7B7" stroke-width="0.5" stroke-miterlimit="10" x1="1178.3" y1="-221.1" x2="-72.8" y2="1861"/>
			<line fill="none" stroke="#B7B7B7" stroke-width="0.5" stroke-miterlimit="10" x1="1262.9" y1="-170.3" x2="11.9" y2="1911.9"/>
			<line fill="none" stroke="#B7B7B7" stroke-width="0.5" stroke-miterlimit="10" x1="1420.2" y1="-75.8" x2="169.1" y2="2006.3"/>
			<line fill="none" stroke="#B7B7B7" stroke-width="0.5" stroke-miterlimit="10" x1="1578.3" y1="19.2" x2="327.2" y2="2101.3"/>
			<line fill="none" stroke="#B7B7B7" stroke-width="0.5" stroke-miterlimit="10" x1="1735.5" y1="113.8" x2="484.5" y2="2195.8"/>
			<line fill="none" stroke="#B7B7B7" stroke-width="0.5" stroke-miterlimit="10" x1="1769.7" y1="134.3" x2="518.7" y2="2216.4"/>
			<line fill="none" stroke="#B7B7B7" stroke-width="0.5" stroke-miterlimit="10" x1="558.7" y1="-593.4" x2="-692.3" y2="1488.7"/>
			<line fill="none" stroke="#B7B7B7" stroke-width="0.5" stroke-miterlimit="10" x1="592.9" y1="-572.9" x2="-658.1" y2="1509.3"/>
			<line fill="none" stroke="#B7B7B7" stroke-width="0.5" stroke-miterlimit="10" x1="660.4" y1="-532.3" x2="-590.6" y2="1549.8"/>
			<line fill="none" stroke="#B7B7B7" stroke-width="0.5" stroke-miterlimit="10" x1="840.8" y1="-423.9" x2="-410.3" y2="1658.1"/>
			<line fill="none" stroke="#B7B7B7" stroke-width="0.5" stroke-miterlimit="10" x1="1280" y1="-160" x2="28.9" y2="1922.1"/>
			<line fill="none" stroke="#B7B7B7" stroke-width="0.5" stroke-miterlimit="10" x1="1409.1" y1="-82.5" x2="158" y2="1999.6"/>
			<line fill="none" stroke="#B7B7B7" stroke-width="0.5" stroke-miterlimit="10" x1="581.8" y1="-579.6" x2="-669.3" y2="1502.6"/>
			<line fill="none" stroke="#B7B7B7" stroke-width="0.5" stroke-miterlimit="10" x1="615.2" y1="-559.5" x2="-635.9" y2="1522.6"/>
			<line fill="none" stroke="#B7B7B7" stroke-width="0.5" stroke-miterlimit="10" x1="722" y1="-495.3" x2="-529.1" y2="1586.7"/>
			<line fill="none" stroke="#B7B7B7" stroke-width="0.5" stroke-miterlimit="10" x1="925.3" y1="-373.1" x2="-325.7" y2="1709"/>
			<line fill="none" stroke="#B7B7B7" stroke-width="0.5" stroke-miterlimit="10" x1="1347.6" y1="-119.4" x2="96.4" y2="1962.6"/>
			<line fill="none" stroke="#B7B7B7" stroke-width="0.5" stroke-miterlimit="10" x1="1476.6" y1="-41.9" x2="225.5" y2="2040.2"/>
			<line fill="none" stroke="#B7B7B7" stroke-width="0.5" stroke-miterlimit="10" x1="789.5" y1="-454.7" x2="-461.6" y2="1627.3"/>
			<line fill="none" stroke="#B7B7B7" stroke-width="0.5" stroke-miterlimit="10" x1="874.1" y1="-403.9" x2="-376.9" y2="1678.2"/>
			
				<line fill="none" stroke="#B7B7B7" stroke-width="0.5" stroke-miterlimit="10" x1="1060.4" y1="-291.9" x2="-190.7" y2="1790.1"/>
			<line fill="none" stroke="#B7B7B7" stroke-width="0.5" stroke-miterlimit="10" x1="1296.2" y1="-150.2" x2="45.2" y2="1931.8"/>
			<line fill="none" stroke="#B7B7B7" stroke-width="0.5" stroke-miterlimit="10" x1="1589.4" y1="25.9" x2="338.3" y2="2108"/>
			<line fill="none" stroke="#B7B7B7" stroke-width="0.5" stroke-miterlimit="10" x1="1645.8" y1="59.8" x2="394.7" y2="2141.9"/>
			<line fill="none" stroke="#B7B7B7" stroke-width="0.5" stroke-miterlimit="10" x1="856.9" y1="-414.2" x2="-394.1" y2="1667.9"/>
			<line fill="none" stroke="#B7B7B7" stroke-width="0.5" stroke-miterlimit="10" x1="958.7" y1="-353" x2="-292.4" y2="1729"/>
			<line fill="none" stroke="#B7B7B7" stroke-width="0.5" stroke-miterlimit="10" x1="1145" y1="-241.1" x2="-106.1" y2="1841"/>
			<line fill="none" stroke="#B7B7B7" stroke-width="0.5" stroke-miterlimit="10" x1="1380.9" y1="-99.4" x2="129.8" y2="1982.7"/>
			<line fill="none" stroke="#B7B7B7" stroke-width="0.5" stroke-miterlimit="10" x1="1623.5" y1="46.5" x2="372.5" y2="2128.5"/>
			<line fill="none" stroke="#B7B7B7" stroke-width="0.5" stroke-miterlimit="10" x1="1679.1" y1="79.9" x2="428" y2="2161.9"/>
			<line fill="none" stroke="#B7B7B7" stroke-width="0.5" stroke-miterlimit="10" x1="908.3" y1="-383.3" x2="-342.8" y2="1698.7"/>
			
				<line fill="none" stroke="#B7B7B7" stroke-width="0.5" stroke-miterlimit="10" x1="1026.2" y1="-312.5" x2="-224.9" y2="1769.6"/>
			<line fill="none" stroke="#B7B7B7" stroke-width="0.5" stroke-miterlimit="10" x1="1228.7" y1="-190.8" x2="-22.3" y2="1891.3"/>
			<line fill="none" stroke="#B7B7B7" stroke-width="0.5" stroke-miterlimit="10" x1="1432.1" y1="-68.6" x2="181.1" y2="2013.5"/>
			<line fill="none" stroke="#B7B7B7" stroke-width="0.5" stroke-miterlimit="10" x1="1656.9" y1="66.5" x2="405.8" y2="2148.6"/>
			<line fill="none" stroke="#B7B7B7" stroke-width="0.5" stroke-miterlimit="10" x1="1724.4" y1="107.1" x2="473.3" y2="2189.1"/>
			<line fill="none" stroke="#B7B7B7" stroke-width="0.5" stroke-miterlimit="10" x1="1009.1" y1="-322.7" x2="-242" y2="1759.3"/>
			
				<line fill="none" stroke="#B7B7B7" stroke-width="0.5" stroke-miterlimit="10" x1="1127.9" y1="-251.3" x2="-123.2" y2="1830.7"/>
			<line fill="none" stroke="#B7B7B7" stroke-width="0.5" stroke-miterlimit="10" x1="1313.4" y1="-140" x2="62.3" y2="1942.1"/>
			<line fill="none" stroke="#B7B7B7" stroke-width="0.5" stroke-miterlimit="10" x1="1499.6" y1="-28" x2="248.6" y2="2054"/>
			<line fill="none" stroke="#B7B7B7" stroke-width="0.5" stroke-miterlimit="10" x1="1691" y1="87" x2="440" y2="2169.1"/>
			<line fill="none" stroke="#B7B7B7" stroke-width="0.5" stroke-miterlimit="10" x1="1747.5" y1="120.9" x2="496.4" y2="2203"/>
			<line fill="none" stroke="#B7B7B7" stroke-width="0.5" stroke-miterlimit="10" x1="1363.7" y1="-109.7" x2="112.7" y2="1972.4"/>
			<line fill="none" stroke="#B7B7B7" stroke-width="0.5" stroke-miterlimit="10" x1="1454.4" y1="-55.2" x2="203.3" y2="2026.8"/>
			<line fill="none" stroke="#B7B7B7" stroke-width="0.5" stroke-miterlimit="10" x1="1567.1" y1="12.6" x2="316.1" y2="2094.6"/>
			<line fill="none" stroke="#B7B7B7" stroke-width="0.5" stroke-miterlimit="10" x1="1668" y1="73.2" x2="417" y2="2155.2"/>
			<line fill="none" stroke="#B7B7B7" stroke-width="0.5" stroke-miterlimit="10" x1="1780.8" y1="141" x2="529.7" y2="2223"/>
			<line fill="none" stroke="#B7B7B7" stroke-width="0.5" stroke-miterlimit="10" x1="1803" y1="154.2" x2="552" y2="2236.4"/>
			<line fill="none" stroke="#B7B7B7" stroke-width="0.5" stroke-miterlimit="10" x1="1443.3" y1="-61.9" x2="192.1" y2="2020.1"/>
			<line fill="none" stroke="#B7B7B7" stroke-width="0.5" stroke-miterlimit="10" x1="1521.9" y1="-14.7" x2="270.8" y2="2067.4"/>
			<line fill="none" stroke="#B7B7B7" stroke-width="0.5" stroke-miterlimit="10" x1="1611.6" y1="39.3" x2="360.5" y2="2121.3"/>
			<line fill="none" stroke="#B7B7B7" stroke-width="0.5" stroke-miterlimit="10" x1="1702.2" y1="93.7" x2="451.2" y2="2175.8"/>
			<line fill="none" stroke="#B7B7B7" stroke-width="0.5" stroke-miterlimit="10" x1="1791.9" y1="147.7" x2="540.9" y2="2229.7"/>
			<line fill="none" stroke="#B7B7B7" stroke-width="0.5" stroke-miterlimit="10" x1="1815" y1="161.5" x2="563.9" y2="2243.6"/>
			<line fill="none" stroke="#B7B7B7" stroke-width="0.5" stroke-miterlimit="10" x1="682.7" y1="-518.9" x2="-568.4" y2="1563.1"/>
			<line fill="none" stroke="#B7B7B7" stroke-width="0.5" stroke-miterlimit="10" x1="716.9" y1="-498.4" x2="-534.2" y2="1583.6"/>
			<line fill="none" stroke="#B7B7B7" stroke-width="0.5" stroke-miterlimit="10" x1="750.2" y1="-478.4" x2="-500.9" y2="1603.7"/>
			<line fill="none" stroke="#B7B7B7" stroke-width="0.5" stroke-miterlimit="10" x1="868.9" y1="-407" x2="-382.1" y2="1675.1"/>
			<line fill="none" stroke="#B7B7B7" stroke-width="0.5" stroke-miterlimit="10" x1="1206.5" y1="-204.2" x2="-44.5" y2="1878"/>
			<line fill="none" stroke="#B7B7B7" stroke-width="0.5" stroke-miterlimit="10" x1="1375.7" y1="-102.5" x2="124.6" y2="1979.6"/>
			<line fill="none" stroke="#B7B7B7" stroke-width="0.5" stroke-miterlimit="10" x1="699.7" y1="-508.7" x2="-551.3" y2="1573.4"/>
			<line fill="none" stroke="#B7B7B7" stroke-width="0.5" stroke-miterlimit="10" x1="727.9" y1="-491.7" x2="-523.1" y2="1590.3"/>
			<line fill="none" stroke="#B7B7B7" stroke-width="0.5" stroke-miterlimit="10" x1="784.4" y1="-457.8" x2="-466.7" y2="1624.2"/>
			<line fill="none" stroke="#B7B7B7" stroke-width="0.5" stroke-miterlimit="10" x1="947.6" y1="-359.7" x2="-303.5" y2="1722.3"/>
			<line fill="none" stroke="#B7B7B7" stroke-width="0.5" stroke-miterlimit="10" x1="1308.2" y1="-143.1" x2="57.1" y2="1939.1"/>
			<line fill="none" stroke="#B7B7B7" stroke-width="0.5" stroke-miterlimit="10" x1="1448.4" y1="-58.8" x2="197.3" y2="2023.2"/>
			<line fill="none" stroke="#B7B7B7" stroke-width="0.5" stroke-miterlimit="10" x1="834.8" y1="-427.5" x2="-416.3" y2="1654.5"/>
			<line fill="none" stroke="#B7B7B7" stroke-width="0.5" stroke-miterlimit="10" x1="902.3" y1="-386.9" x2="-348.7" y2="1695.1"/>
			
				<line fill="none" stroke="#B7B7B7" stroke-width="0.5" stroke-miterlimit="10" x1="1032.2" y1="-308.9" x2="-218.9" y2="1773.2"/>
			<line fill="none" stroke="#B7B7B7" stroke-width="0.5" stroke-miterlimit="10" x1="1240.7" y1="-183.6" x2="-10.3" y2="1898.5"/>
			<line fill="none" stroke="#B7B7B7" stroke-width="0.5" stroke-miterlimit="10" x1="1572.3" y1="15.7" x2="321.3" y2="2097.7"/>
			<line fill="none" stroke="#B7B7B7" stroke-width="0.5" stroke-miterlimit="10" x1="1662.9" y1="70.1" x2="411.8" y2="2152.1"/>
			<line fill="none" stroke="#B7B7B7" stroke-width="0.5" stroke-miterlimit="10" x1="880.1" y1="-400.3" x2="-371" y2="1681.8"/>
			<line fill="none" stroke="#B7B7B7" stroke-width="0.5" stroke-miterlimit="10" x1="964.7" y1="-349.5" x2="-286.4" y2="1732.6"/>
			<line fill="none" stroke="#B7B7B7" stroke-width="0.5" stroke-miterlimit="10" x1="1088.6" y1="-275" x2="-162.5" y2="1807.1"/>
			<line fill="none" stroke="#B7B7B7" stroke-width="0.5" stroke-miterlimit="10" x1="1358.6" y1="-112.8" x2="107.6" y2="1969.3"/>
			<line fill="none" stroke="#B7B7B7" stroke-width="0.5" stroke-miterlimit="10" x1="1639.8" y1="56.2" x2="388.8" y2="2138.3"/>
			<line fill="none" stroke="#B7B7B7" stroke-width="0.5" stroke-miterlimit="10" x1="1719.3" y1="104" x2="468.2" y2="2186"/>
			<line fill="none" stroke="#B7B7B7" stroke-width="0.5" stroke-miterlimit="10" x1="936.5" y1="-366.4" x2="-314.6" y2="1715.7"/>
			<line fill="none" stroke="#B7B7B7" stroke-width="0.5" stroke-miterlimit="10" x1="1021.1" y1="-315.6" x2="-230" y2="1766.5"/>
			<line fill="none" stroke="#B7B7B7" stroke-width="0.5" stroke-miterlimit="10" x1="1156.2" y1="-234.4" x2="-95" y2="1847.7"/>
			<line fill="none" stroke="#B7B7B7" stroke-width="0.5" stroke-miterlimit="10" x1="1415.1" y1="-78.9" x2="164" y2="2003.2"/>
			<line fill="none" stroke="#B7B7B7" stroke-width="0.5" stroke-miterlimit="10" x1="1685.1" y1="83.4" x2="434" y2="2165.5"/>
			<line fill="none" stroke="#B7B7B7" stroke-width="0.5" stroke-miterlimit="10" x1="1774.8" y1="137.4" x2="523.7" y2="2219.4"/>
			<line fill="none" stroke="#B7B7B7" stroke-width="0.5" stroke-miterlimit="10" x1="1004" y1="-325.8" x2="-247" y2="1756.2"/>
			
				<line fill="none" stroke="#B7B7B7" stroke-width="0.5" stroke-miterlimit="10" x1="1071.5" y1="-285.2" x2="-179.5" y2="1796.8"/>
			<line fill="none" stroke="#B7B7B7" stroke-width="0.5" stroke-miterlimit="10" x1="1251.9" y1="-177" x2="0.7" y2="1905.2"/>
			<line fill="none" stroke="#B7B7B7" stroke-width="0.5" stroke-miterlimit="10" x1="1471.4" y1="-45" x2="220.4" y2="2037.1"/>
			<line fill="none" stroke="#B7B7B7" stroke-width="0.5" stroke-miterlimit="10" x1="1730.4" y1="110.7" x2="479.3" y2="2192.7"/>
			<line fill="none" stroke="#B7B7B7" stroke-width="0.5" stroke-miterlimit="10" x1="1809" y1="157.9" x2="557.9" y2="2240"/>
			<line fill="none" stroke="#B7B7B7" stroke-width="0.5" stroke-miterlimit="10" x1="1336.4" y1="-126.1" x2="85.4" y2="1956"/>
			<line fill="none" stroke="#B7B7B7" stroke-width="0.5" stroke-miterlimit="10" x1="1437.3" y1="-65.5" x2="186.2" y2="2016.6"/>
			<line fill="none" stroke="#B7B7B7" stroke-width="0.5" stroke-miterlimit="10" x1="1527.8" y1="-11.1" x2="276.8" y2="2071"/>
			<line fill="none" stroke="#B7B7B7" stroke-width="0.5" stroke-miterlimit="10" x1="1707.3" y1="96.8" x2="456.3" y2="2178.9"/>
			<line fill="none" stroke="#B7B7B7" stroke-width="0.5" stroke-miterlimit="10" x1="1854.4" y1="185.1" x2="603.2" y2="2267.2"/>
			<line fill="none" stroke="#B7B7B7" stroke-width="0.5" stroke-miterlimit="10" x1="1876.5" y1="198.4" x2="625.4" y2="2280.6"/>
			<line fill="none" stroke="#B7B7B7" stroke-width="0.5" stroke-miterlimit="10" x1="1426.1" y1="-72.2" x2="175.1" y2="2009.9"/>
			<line fill="none" stroke="#B7B7B7" stroke-width="0.5" stroke-miterlimit="10" x1="1482.6" y1="-38.3" x2="231.5" y2="2043.8"/>
			<line fill="none" stroke="#B7B7B7" stroke-width="0.5" stroke-miterlimit="10" x1="1595.3" y1="29.5" x2="344.3" y2="2111.6"/>
			<line fill="none" stroke="#B7B7B7" stroke-width="0.5" stroke-miterlimit="10" x1="1752.7" y1="124" x2="501.5" y2="2206.1"/>
			<line fill="none" stroke="#B7B7B7" stroke-width="0.5" stroke-miterlimit="10" x1="1865.4" y1="191.7" x2="614.4" y2="2273.9"/>
			<line fill="none" stroke="#B7B7B7" stroke-width="0.5" stroke-miterlimit="10" x1="1882.5" y1="202" x2="631.4" y2="2284.1"/>
			<line fill="none" stroke="#B7B7B7" stroke-width="0.5" stroke-miterlimit="10" x1="767.2" y1="-468.1" x2="-483.8" y2="1614"/>
			<line fill="none" stroke="#B7B7B7" stroke-width="0.5" stroke-miterlimit="10" x1="812.6" y1="-440.9" x2="-438.5" y2="1641.2"/>
			<line fill="none" stroke="#B7B7B7" stroke-width="0.5" stroke-miterlimit="10" x1="919.4" y1="-376.7" x2="-331.7" y2="1705.4"/>
			
				<line fill="none" stroke="#B7B7B7" stroke-width="0.5" stroke-miterlimit="10" x1="1099.7" y1="-268.3" x2="-151.3" y2="1813.8"/>
			<line fill="none" stroke="#B7B7B7" stroke-width="0.5" stroke-miterlimit="10" x1="1493.6" y1="-31.6" x2="242.6" y2="2050.4"/>
			<line fill="none" stroke="#B7B7B7" stroke-width="0.5" stroke-miterlimit="10" x1="1583.4" y1="22.3" x2="332.3" y2="2104.4"/>
			<line fill="none" stroke="#B7B7B7" stroke-width="0.5" stroke-miterlimit="10" x1="795.4" y1="-451.1" x2="-455.6" y2="1630.9"/>
			<line fill="none" stroke="#B7B7B7" stroke-width="0.5" stroke-miterlimit="10" x1="851.9" y1="-417.2" x2="-399.2" y2="1664.8"/>
			<line fill="none" stroke="#B7B7B7" stroke-width="0.5" stroke-miterlimit="10" x1="986.9" y1="-336.1" x2="-264.2" y2="1746"/>
			<line fill="none" stroke="#B7B7B7" stroke-width="0.5" stroke-miterlimit="10" x1="1184.3" y1="-217.4" x2="-66.8" y2="1864.6"/>
			<line fill="none" stroke="#B7B7B7" stroke-width="0.5" stroke-miterlimit="10" x1="1539" y1="-4.4" x2="287.9" y2="2077.7"/>
			<line fill="none" stroke="#B7B7B7" stroke-width="0.5" stroke-miterlimit="10" x1="1651.8" y1="63.4" x2="400.7" y2="2145.5"/>
			
				<line fill="none" stroke="#B7B7B7" stroke-width="0.5" stroke-miterlimit="10" x1="1054.5" y1="-295.5" x2="-196.7" y2="1786.5"/>
			<line fill="none" stroke="#B7B7B7" stroke-width="0.5" stroke-miterlimit="10" x1="1139" y1="-244.7" x2="-112" y2="1837.4"/>
			<line fill="none" stroke="#B7B7B7" stroke-width="0.5" stroke-miterlimit="10" x1="1324.4" y1="-133.3" x2="73.4" y2="1948.8"/>
			<line fill="none" stroke="#B7B7B7" stroke-width="0.5" stroke-miterlimit="10" x1="1504.8" y1="-24.9" x2="253.8" y2="2057.1"/>
			<line fill="none" stroke="#B7B7B7" stroke-width="0.5" stroke-miterlimit="10" x1="1763.7" y1="130.7" x2="512.7" y2="2212.8"/>
			<line fill="none" stroke="#B7B7B7" stroke-width="0.5" stroke-miterlimit="10" x1="1820.2" y1="164.6" x2="569" y2="2246.7"/>
			<line fill="none" stroke="#B7B7B7" stroke-width="0.5" stroke-miterlimit="10" x1="1116.8" y1="-258" x2="-134.3" y2="1824"/>
			<line fill="none" stroke="#B7B7B7" stroke-width="0.5" stroke-miterlimit="10" x1="1223.6" y1="-193.9" x2="-27.4" y2="1888.2"/>
			<line fill="none" stroke="#B7B7B7" stroke-width="0.5" stroke-miterlimit="10" x1="1403.9" y1="-85.5" x2="152.9" y2="1996.5"/>
			<line fill="none" stroke="#B7B7B7" stroke-width="0.5" stroke-miterlimit="10" x1="1561.1" y1="9" x2="310.1" y2="2091"/>
			<line fill="none" stroke="#B7B7B7" stroke-width="0.5" stroke-miterlimit="10" x1="1797.9" y1="151.2" x2="546.9" y2="2233.3"/>
			<line fill="none" stroke="#B7B7B7" stroke-width="0.5" stroke-miterlimit="10" x1="1837.2" y1="174.9" x2="586.2" y2="2256.9"/>
			<line fill="none" stroke="#B7B7B7" stroke-width="0.5" stroke-miterlimit="10" x1="1172.3" y1="-224.7" x2="-78.7" y2="1857.4"/>
			<line fill="none" stroke="#B7B7B7" stroke-width="0.5" stroke-miterlimit="10" x1="1291.1" y1="-153.3" x2="40.1" y2="1928.8"/>
			<line fill="none" stroke="#B7B7B7" stroke-width="0.5" stroke-miterlimit="10" x1="1459.4" y1="-52.1" x2="208.4" y2="2029.9"/>
			<line fill="none" stroke="#B7B7B7" stroke-width="0.5" stroke-miterlimit="10" x1="1606.5" y1="36.2" x2="355.5" y2="2118.2"/>
			<line fill="none" stroke="#B7B7B7" stroke-width="0.5" stroke-miterlimit="10" x1="1826.1" y1="168.2" x2="575" y2="2250.2"/>
			<line fill="none" stroke="#B7B7B7" stroke-width="0.5" stroke-miterlimit="10" x1="1859.4" y1="188.1" x2="608.4" y2="2270.3"/>
			<line fill="none" stroke="#B7B7B7" stroke-width="0.5" stroke-miterlimit="10" x1="1268" y1="-167.2" x2="17" y2="1914.9"/>
			<line fill="none" stroke="#B7B7B7" stroke-width="0.5" stroke-miterlimit="10" x1="1391.9" y1="-92.7" x2="140.9" y2="1989.3"/>
			<line fill="none" stroke="#B7B7B7" stroke-width="0.5" stroke-miterlimit="10" x1="1515.9" y1="-18.2" x2="264.8" y2="2063.8"/>
			<line fill="none" stroke="#B7B7B7" stroke-width="0.5" stroke-miterlimit="10" x1="1674" y1="76.8" x2="423" y2="2158.8"/>
			<line fill="none" stroke="#B7B7B7" stroke-width="0.5" stroke-miterlimit="10" x1="1843.2" y1="178.5" x2="592.1" y2="2260.5"/>
			<line fill="none" stroke="#B7B7B7" stroke-width="0.5" stroke-miterlimit="10" x1="1870.5" y1="194.8" x2="619.5" y2="2277"/>
			<line fill="none" stroke="#B7B7B7" stroke-width="0.5" stroke-miterlimit="10" x1="1550.1" y1="2.3" x2="299" y2="2084.3"/>
			<line fill="none" stroke="#B7B7B7" stroke-width="0.5" stroke-miterlimit="10" x1="1628.7" y1="49.6" x2="377.6" y2="2131.6"/>
			<line fill="none" stroke="#B7B7B7" stroke-width="0.5" stroke-miterlimit="10" x1="1741.5" y1="117.3" x2="490.4" y2="2199.4"/>
			<line fill="none" stroke="#B7B7B7" stroke-width="0.5" stroke-miterlimit="10" x1="1831.2" y1="171.2" x2="580.2" y2="2253.3"/>
			<line fill="none" stroke="#B7B7B7" stroke-width="0.5" stroke-miterlimit="10" x1="1887.7" y1="205.1" x2="636.6" y2="2287.2"/>
			<line fill="none" stroke="#B7B7B7" stroke-width="0.5" stroke-miterlimit="10" x1="1898.7" y1="211.8" x2="647.7" y2="2293.9"/>
			<line fill="none" stroke="#B7B7B7" stroke-width="0.5" stroke-miterlimit="10" x1="1617.6" y1="42.9" x2="366.5" y2="2124.9"/>
			<line fill="none" stroke="#B7B7B7" stroke-width="0.5" stroke-miterlimit="10" x1="1696.2" y1="90.1" x2="445.2" y2="2172.2"/>
			<line fill="none" stroke="#B7B7B7" stroke-width="0.5" stroke-miterlimit="10" x1="1786.8" y1="144.6" x2="535.7" y2="2226.6"/>
			<line fill="none" stroke="#B7B7B7" stroke-width="0.5" stroke-miterlimit="10" x1="1848.4" y1="181.5" x2="597.2" y2="2263.6"/>
			<line fill="none" stroke="#B7B7B7" stroke-width="0.5" stroke-miterlimit="10" x1="1893.6" y1="208.7" x2="642.6" y2="2290.8"/>
			<line fill="none" stroke="#B7B7B7" stroke-width="0.5" stroke-miterlimit="10" x1="1904.7" y1="215.4" x2="653.7" y2="2297.5"/>
			<line fill="none" stroke="#B7B7B7" stroke-width="0.5" stroke-miterlimit="10" x1="288.7" y1="-755.6" x2="-962.4" y2="1326.4"/>
			<line fill="none" stroke="#B7B7B7" stroke-width="0.5" stroke-miterlimit="10" x1="299.8" y1="-749" x2="-951.2" y2="1333.1"/>
			<line fill="none" stroke="#B7B7B7" stroke-width="0.5" stroke-miterlimit="10" x1="310.9" y1="-742.3" x2="-940.2" y2="1339.8"/>
			<line fill="none" stroke="#B7B7B7" stroke-width="0.5" stroke-miterlimit="10" x1="350.3" y1="-718.6" x2="-900.9" y2="1363.4"/>
			<line fill="none" stroke="#B7B7B7" stroke-width="0.5" stroke-miterlimit="10" x1="463" y1="-650.8" x2="-788" y2="1431.2"/>
			<line fill="none" stroke="#B7B7B7" stroke-width="0.5" stroke-miterlimit="10" x1="541.7" y1="-603.7" x2="-709.5" y2="1478.5"/>
			<line fill="none" stroke="#B7B7B7" stroke-width="0.5" stroke-miterlimit="10" x1="294.6" y1="-752" x2="-956.4" y2="1330"/>
			<line fill="none" stroke="#B7B7B7" stroke-width="0.5" stroke-miterlimit="10" x1="305.8" y1="-745.4" x2="-945.2" y2="1336.7"/>
			<line fill="none" stroke="#B7B7B7" stroke-width="0.5" stroke-miterlimit="10" x1="322.9" y1="-735.1" x2="-928.2" y2="1347"/>
			<line fill="none" stroke="#B7B7B7" stroke-width="0.5" stroke-miterlimit="10" x1="378.4" y1="-701.7" x2="-872.7" y2="1380.4"/>
			<line fill="none" stroke="#B7B7B7" stroke-width="0.5" stroke-miterlimit="10" x1="497.2" y1="-630.3" x2="-753.8" y2="1451.7"/>
			<line fill="none" stroke="#B7B7B7" stroke-width="0.5" stroke-miterlimit="10" x1="610" y1="-562.6" x2="-641.1" y2="1519.5"/>
			<line fill="none" stroke="#B7B7B7" stroke-width="0.5" stroke-miterlimit="10" x1="339.1" y1="-725.3" x2="-911.9" y2="1356.7"/>
			<line fill="none" stroke="#B7B7B7" stroke-width="0.5" stroke-miterlimit="10" x1="362.2" y1="-711.5" x2="-888.9" y2="1370.6"/>
			<line fill="none" stroke="#B7B7B7" stroke-width="0.5" stroke-miterlimit="10" x1="406.6" y1="-684.7" x2="-844.4" y2="1397.3"/>
			<line fill="none" stroke="#B7B7B7" stroke-width="0.5" stroke-miterlimit="10" x1="474.1" y1="-644.3" x2="-776.9" y2="1437.9"/>
			<line fill="none" stroke="#B7B7B7" stroke-width="0.5" stroke-miterlimit="10" x1="761.2" y1="-471.7" x2="-489.8" y2="1610.4"/>
			<line fill="none" stroke="#B7B7B7" stroke-width="0.5" stroke-miterlimit="10" x1="897.1" y1="-390" x2="-353.9" y2="1692"/>
			<line fill="none" stroke="#B7B7B7" stroke-width="0.5" stroke-miterlimit="10" x1="356.3" y1="-715.1" x2="-894.9" y2="1367"/>
			<line fill="none" stroke="#B7B7B7" stroke-width="0.5" stroke-miterlimit="10" x1="384.4" y1="-698.1" x2="-866.7" y2="1383.9"/>
			<line fill="none" stroke="#B7B7B7" stroke-width="0.5" stroke-miterlimit="10" x1="423.7" y1="-674.5" x2="-827.4" y2="1407.6"/>
			<line fill="none" stroke="#B7B7B7" stroke-width="0.5" stroke-miterlimit="10" x1="530.5" y1="-610.4" x2="-720.5" y2="1471.8"/>
			<line fill="none" stroke="#B7B7B7" stroke-width="0.5" stroke-miterlimit="10" x1="862.9" y1="-410.6" x2="-388.1" y2="1671.5"/>
			<line fill="none" stroke="#B7B7B7" stroke-width="0.5" stroke-miterlimit="10" x1="980.9" y1="-339.7" x2="-270.2" y2="1742.4"/>
			<line fill="none" stroke="#B7B7B7" stroke-width="0.5" stroke-miterlimit="10" x1="373.3" y1="-704.8" x2="-877.7" y2="1377.3"/>
			<line fill="none" stroke="#B7B7B7" stroke-width="0.5" stroke-miterlimit="10" x1="401.5" y1="-687.8" x2="-849.5" y2="1394.2"/>
			<line fill="none" stroke="#B7B7B7" stroke-width="0.5" stroke-miterlimit="10" x1="446" y1="-661.1" x2="-805.2" y2="1420.9"/>
			<line fill="none" stroke="#B7B7B7" stroke-width="0.5" stroke-miterlimit="10" x1="575.8" y1="-583.2" x2="-675.3" y2="1499"/>
			<line fill="none" stroke="#B7B7B7" stroke-width="0.5" stroke-miterlimit="10" x1="930.5" y1="-370" x2="-320.6" y2="1712.1"/>
			
				<line fill="none" stroke="#B7B7B7" stroke-width="0.5" stroke-miterlimit="10" x1="1065.5" y1="-288.8" x2="-185.5" y2="1793.2"/>
			<line fill="none" stroke="#B7B7B7" stroke-width="0.5" stroke-miterlimit="10" x1="395.5" y1="-691.4" x2="-855.5" y2="1390.6"/>
			<line fill="none" stroke="#B7B7B7" stroke-width="0.5" stroke-miterlimit="10" x1="418.6" y1="-677.6" x2="-832.5" y2="1404.5"/>
			<line fill="none" stroke="#B7B7B7" stroke-width="0.5" stroke-miterlimit="10" x1="480.1" y1="-640.6" x2="-771" y2="1441.5"/>
			<line fill="none" stroke="#B7B7B7" stroke-width="0.5" stroke-miterlimit="10" x1="632.2" y1="-549.3" x2="-618.8" y2="1532.9"/>
			<line fill="none" stroke="#B7B7B7" stroke-width="0.5" stroke-miterlimit="10" x1="998" y1="-329.4" x2="-253" y2="1752.6"/>
			<line fill="none" stroke="#B7B7B7" stroke-width="0.5" stroke-miterlimit="10" x1="1122" y1="-254.9" x2="-129.2" y2="1827.1"/>
			<line fill="none" stroke="#B7B7B7" stroke-width="0.5" stroke-miterlimit="10" x1="519.5" y1="-617" x2="-731.6" y2="1465.1"/>
			<line fill="none" stroke="#B7B7B7" stroke-width="0.5" stroke-miterlimit="10" x1="598" y1="-569.8" x2="-653" y2="1512.4"/>
			<line fill="none" stroke="#B7B7B7" stroke-width="0.5" stroke-miterlimit="10" x1="693.7" y1="-512.3" x2="-557.3" y2="1569.8"/>
			<line fill="none" stroke="#B7B7B7" stroke-width="0.5" stroke-miterlimit="10" x1="969.8" y1="-346.4" x2="-281.2" y2="1735.7"/>
			<line fill="none" stroke="#B7B7B7" stroke-width="0.5" stroke-miterlimit="10" x1="1234.7" y1="-187.2" x2="-16.3" y2="1894.9"/>
			<line fill="none" stroke="#B7B7B7" stroke-width="0.5" stroke-miterlimit="10" x1="1302.2" y1="-146.7" x2="51.2" y2="1935.4"/>
			<line fill="none" stroke="#B7B7B7" stroke-width="0.5" stroke-miterlimit="10" x1="587" y1="-576.5" x2="-664.1" y2="1505.7"/>
			<line fill="none" stroke="#B7B7B7" stroke-width="0.5" stroke-miterlimit="10" x1="643.4" y1="-542.6" x2="-607.8" y2="1539.5"/>
			<line fill="none" stroke="#B7B7B7" stroke-width="0.5" stroke-miterlimit="10" x1="801.4" y1="-447.6" x2="-449.6" y2="1634.5"/>
			
				<line fill="none" stroke="#B7B7B7" stroke-width="0.5" stroke-miterlimit="10" x1="1037.3" y1="-305.8" x2="-213.7" y2="1776.3"/>
			<line fill="none" stroke="#B7B7B7" stroke-width="0.5" stroke-miterlimit="10" x1="1274" y1="-163.6" x2="23" y2="1918.5"/>
			<line fill="none" stroke="#B7B7B7" stroke-width="0.5" stroke-miterlimit="10" x1="1319.4" y1="-136.4" x2="68.3" y2="1945.8"/>
			<line fill="none" stroke="#B7B7B7" stroke-width="0.5" stroke-miterlimit="10" x1="316.9" y1="-738.7" x2="-934.2" y2="1343.4"/>
			<line fill="none" stroke="#B7B7B7" stroke-width="0.5" stroke-miterlimit="10" x1="334" y1="-728.4" x2="-917.1" y2="1353.6"/>
			<line fill="none" stroke="#B7B7B7" stroke-width="0.5" stroke-miterlimit="10" x1="367.3" y1="-708.4" x2="-883.7" y2="1373.7"/>
			<line fill="none" stroke="#B7B7B7" stroke-width="0.5" stroke-miterlimit="10" x1="429.7" y1="-670.9" x2="-821.4" y2="1411.2"/>
			<line fill="none" stroke="#B7B7B7" stroke-width="0.5" stroke-miterlimit="10" x1="654.5" y1="-535.9" x2="-596.6" y2="1546.2"/>
			<line fill="none" stroke="#B7B7B7" stroke-width="0.5" stroke-miterlimit="10" x1="778.4" y1="-461.4" x2="-472.7" y2="1620.6"/>
			<line fill="none" stroke="#B7B7B7" stroke-width="0.5" stroke-miterlimit="10" x1="328" y1="-732" x2="-923.1" y2="1350"/>
			<line fill="none" stroke="#B7B7B7" stroke-width="0.5" stroke-miterlimit="10" x1="345.1" y1="-721.7" x2="-906" y2="1360.3"/>
			<line fill="none" stroke="#B7B7B7" stroke-width="0.5" stroke-miterlimit="10" x1="390.3" y1="-694.5" x2="-860.7" y2="1387.5"/>
			<line fill="none" stroke="#B7B7B7" stroke-width="0.5" stroke-miterlimit="10" x1="457.9" y1="-653.9" x2="-793.2" y2="1428.1"/>
			<line fill="none" stroke="#B7B7B7" stroke-width="0.5" stroke-miterlimit="10" x1="710.9" y1="-502" x2="-540.2" y2="1580.1"/>
			<line fill="none" stroke="#B7B7B7" stroke-width="0.5" stroke-miterlimit="10" x1="885.2" y1="-397.2" x2="-365.9" y2="1684.8"/>
			<line fill="none" stroke="#B7B7B7" stroke-width="0.5" stroke-miterlimit="10" x1="412.6" y1="-681.2" x2="-838.5" y2="1400.9"/>
			<line fill="none" stroke="#B7B7B7" stroke-width="0.5" stroke-miterlimit="10" x1="440.8" y1="-664.2" x2="-810.2" y2="1417.8"/>
			<line fill="none" stroke="#B7B7B7" stroke-width="0.5" stroke-miterlimit="10" x1="508.3" y1="-623.6" x2="-742.8" y2="1458.4"/>
			<line fill="none" stroke="#B7B7B7" stroke-width="0.5" stroke-miterlimit="10" x1="665.5" y1="-529.2" x2="-585.5" y2="1552.8"/>
			<line fill="none" stroke="#B7B7B7" stroke-width="0.5" stroke-miterlimit="10" x1="1048.5" y1="-299.1" x2="-202.7" y2="1783"/>
			<line fill="none" stroke="#B7B7B7" stroke-width="0.5" stroke-miterlimit="10" x1="1133" y1="-248.3" x2="-118" y2="1833.8"/>
			<line fill="none" stroke="#B7B7B7" stroke-width="0.5" stroke-miterlimit="10" x1="434.8" y1="-667.8" x2="-816.2" y2="1414.3"/>
			<line fill="none" stroke="#B7B7B7" stroke-width="0.5" stroke-miterlimit="10" x1="469" y1="-647.3" x2="-782" y2="1434.8"/>
			<line fill="none" stroke="#B7B7B7" stroke-width="0.5" stroke-miterlimit="10" x1="564.7" y1="-589.8" x2="-686.3" y2="1492.3"/>
			<line fill="none" stroke="#B7B7B7" stroke-width="0.5" stroke-miterlimit="10" x1="745.1" y1="-481.5" x2="-506.1" y2="1600.6"/>
			
				<line fill="none" stroke="#B7B7B7" stroke-width="0.5" stroke-miterlimit="10" x1="1104.8" y1="-265.2" x2="-146.2" y2="1816.8"/>
			<line fill="none" stroke="#B7B7B7" stroke-width="0.5" stroke-miterlimit="10" x1="1189.5" y1="-214.5" x2="-61.6" y2="1867.7"/>
			<line fill="none" stroke="#B7B7B7" stroke-width="0.5" stroke-miterlimit="10" x1="452" y1="-657.5" x2="-799.2" y2="1424.5"/>
			<line fill="none" stroke="#B7B7B7" stroke-width="0.5" stroke-miterlimit="10" x1="491.2" y1="-633.9" x2="-759.8" y2="1448.2"/>
			<line fill="none" stroke="#B7B7B7" stroke-width="0.5" stroke-miterlimit="10" x1="621.2" y1="-555.9" x2="-629.9" y2="1526.2"/>
			<line fill="none" stroke="#B7B7B7" stroke-width="0.5" stroke-miterlimit="10" x1="817.7" y1="-437.8" x2="-433.4" y2="1644.3"/>
			<line fill="none" stroke="#B7B7B7" stroke-width="0.5" stroke-miterlimit="10" x1="1150.2" y1="-238" x2="-101" y2="1844.1"/>
			<line fill="none" stroke="#B7B7B7" stroke-width="0.5" stroke-miterlimit="10" x1="1256.9" y1="-173.9" x2="5.9" y2="1908.3"/>
			<line fill="none" stroke="#B7B7B7" stroke-width="0.5" stroke-miterlimit="10" x1="486.1" y1="-637" x2="-765" y2="1445.1"/>
			<line fill="none" stroke="#B7B7B7" stroke-width="0.5" stroke-miterlimit="10" x1="553.7" y1="-596.5" x2="-697.5" y2="1485.6"/>
			<line fill="none" stroke="#B7B7B7" stroke-width="0.5" stroke-miterlimit="10" x1="677.5" y1="-522" x2="-573.6" y2="1560"/>
			<line fill="none" stroke="#B7B7B7" stroke-width="0.5" stroke-miterlimit="10" x1="913.4" y1="-380.3" x2="-337.7" y2="1701.8"/>
			<line fill="none" stroke="#B7B7B7" stroke-width="0.5" stroke-miterlimit="10" x1="1200.5" y1="-207.8" x2="-50.5" y2="1874.4"/>
			<line fill="none" stroke="#B7B7B7" stroke-width="0.5" stroke-miterlimit="10" x1="1285.2" y1="-156.9" x2="34.1" y2="1925.1"/>
			<line fill="none" stroke="#B7B7B7" stroke-width="0.5" stroke-miterlimit="10" x1="733.9" y1="-488.1" x2="-517.1" y2="1593.9"/>
			<line fill="none" stroke="#B7B7B7" stroke-width="0.5" stroke-miterlimit="10" x1="845.9" y1="-420.8" x2="-405.2" y2="1661.2"/>
			<line fill="none" stroke="#B7B7B7" stroke-width="0.5" stroke-miterlimit="10" x1="1015.1" y1="-319.1" x2="-236" y2="1762.9"/>
			<line fill="none" stroke="#B7B7B7" stroke-width="0.5" stroke-miterlimit="10" x1="1167.2" y1="-227.7" x2="-83.8" y2="1854.3"/>
			<line fill="none" stroke="#B7B7B7" stroke-width="0.5" stroke-miterlimit="10" x1="1341.6" y1="-123" x2="90.4" y2="1959"/>
			<line fill="none" stroke="#B7B7B7" stroke-width="0.5" stroke-miterlimit="10" x1="1369.7" y1="-106.1" x2="118.7" y2="1976"/>
			<line fill="none" stroke="#B7B7B7" stroke-width="0.5" stroke-miterlimit="10" x1="829.6" y1="-430.6" x2="-421.4" y2="1651.4"/>
			<line fill="none" stroke="#B7B7B7" stroke-width="0.5" stroke-miterlimit="10" x1="952.8" y1="-356.6" x2="-298.4" y2="1725.4"/>
			
				<line fill="none" stroke="#B7B7B7" stroke-width="0.5" stroke-miterlimit="10" x1="1082.6" y1="-278.6" x2="-168.5" y2="1803.5"/>
			<line fill="none" stroke="#B7B7B7" stroke-width="0.5" stroke-miterlimit="10" x1="1217.7" y1="-197.5" x2="-33.4" y2="1884.6"/>
			<line fill="none" stroke="#B7B7B7" stroke-width="0.5" stroke-miterlimit="10" x1="1352.7" y1="-116.4" x2="101.6" y2="1965.7"/>
			<line fill="none" stroke="#B7B7B7" stroke-width="0.5" stroke-miterlimit="10" x1="1386.9" y1="-95.8" x2="135.8" y2="1986.2"/>
		</g>
	</g>
</g>
</svg>
