<?xml version="1.0" encoding="utf-8"?>
<!-- Generator: Adobe Illustrator 17.1.0, SVG Export Plug-In . SVG Version: 6.00 Build 0)  -->
<!DOCTYPE svg PUBLIC "-//W3C//DTD SVG 1.1//EN" "http://www.w3.org/Graphics/SVG/1.1/DTD/svg11.dtd">
<svg version="1.1" id="レイヤー_1" xmlns="http://www.w3.org/2000/svg" xmlns:xlink="http://www.w3.org/1999/xlink" x="0px"
	 y="0px" viewBox="0 0 34.5 34.6" enable-background="new 0 0 34.5 34.6" xml:space="preserve">
<g>
	<path d="M30.2,29.3c0,0.1,0,0.2-0.1,0.2c-0.2,0.2-0.3,0.2-0.5,0L17.3,17.7L4.9,29.6c-0.2,0.2-0.3,0.2-0.5,0c-0.2-0.2-0.2-0.3,0-0.5
		L17,17c0.2-0.2,0.3-0.2,0.5,0l12.6,12.1C30.2,29.2,30.2,29.3,30.2,29.3z"/>
</g>
<g>
	<path d="M30.1,5.5L17.5,17.5c-0.2,0.2-0.3,0.2-0.5,0L4.4,5.5C4.2,5.3,4.2,5.1,4.4,5c0.2-0.2,0.3-0.2,0.5,0l12.4,11.8L29.6,5
		c0.2-0.2,0.3-0.2,0.5,0c0.1,0.1,0.1,0.1,0.1,0.2C30.2,5.3,30.2,5.4,30.1,5.5z"/>
</g>
</svg>
