<?xml version="1.0" encoding="utf-8"?>
<!-- Generator: Adobe Illustrator 17.1.0, SVG Export Plug-In . SVG Version: 6.00 Build 0)  -->
<!DOCTYPE svg PUBLIC "-//W3C//DTD SVG 1.1//EN" "http://www.w3.org/Graphics/SVG/1.1/DTD/svg11.dtd">
<svg version="1.1" id="レイヤー_1" xmlns="http://www.w3.org/2000/svg" xmlns:xlink="http://www.w3.org/1999/xlink" x="0px"
	 y="0px" viewBox="0 0 479.8 527.1" enable-background="new 0 0 479.8 527.1" xml:space="preserve">
<g>
	<path fill="#040000" d="M149.3,104c-0.5,7.9-1.8,15-8.1,20.3c-1.4,1.2-4.6,3.7-9.2,4.7c-3,0.8-6.7,0.8-7.4,0.8h-12.2V37.2h8
		c8.4,0,16.8,0.7,22.7,7.6c5.1,6.2,6.3,14.6,6.3,30.3v20.6C149.4,98.5,149.4,101.1,149.3,104z M143.1,75c0-6.6-0.1-17.6-3.3-23.5
		c-2.8-5.1-7.7-7-9.6-7.5c-2.6-0.7-5.8-0.9-6.6-0.9h-4.9v81h5.2c4.2,0,7.7-0.7,11.4-3.1c6-4.3,7.6-11.2,7.6-24.7V75z"/>
	<path fill="#040000" d="M170.5,43v35.7h21.8v5.6h-21.8v39.8h26.4v5.8h-32.7V37.2h32.8V43H170.5z"/>
	<path fill="#040000" d="M240.8,124.5c-2.2,3.3-6.8,6.8-15.8,6.8c-3.5,0-7.7-0.7-10.6-2.2c-0.7-0.4-1.7-1-3-2.2
		c-2.1-1.8-3.5-3.9-4.6-6.7c-0.9-2.6-1.1-4.7-1.1-7.5V99.5h6.4v7.5c0,2-0.1,3.8,0,5.8c0.3,4.5,1.7,12.9,13.7,12.9
		c1.1,0,3.9,0,6.7-1.7c3.3-2,5.1-5.9,5.1-13.5c0-7.2-1.6-10.5-3.3-13.3c-3.4-5.3-9.6-11.2-10.5-11.9c-5.4-5.3-8.7-8.9-10.6-11.7
		c-2.2-3-5.2-8.3-5.2-17.2c0-0.5,0-4.3,0.5-7c0.9-5.3,3.9-13.5,16.9-13.5c1.4,0,6.7,0,10.9,2.6c6.4,4.2,6.4,12.1,6.4,18.8V64h-6.3
		v-8.3c0-3.3,0-4.3-0.4-6.2c-0.5-3.2-2.5-8.1-10.5-8.1c-0.9,0-3.9,0-6.6,1.6c-2.9,1.8-4.6,5.5-4.6,12.3c0,8.8,2.4,12.3,8,18.8
		c2,2.4,4.1,4.6,6.3,7c3.3,3.3,6.6,6.4,9.5,10.1c4.6,5.8,5.9,10.9,5.9,18.2C244,117.1,242.6,121.7,240.8,124.5z"/>
	<path fill="#040000" d="M257,129.9V37.2h6.7v92.7H257z"/>
	<path fill="#040000" d="M311.5,129.9v-7.4c-1.2,1.7-1.6,2.2-2.4,3c-1.7,1.8-6,5.6-13.1,5.6c-5.5,0-10.9-2.4-13.9-7.1
		c-2.9-4.3-3.5-8.4-3.5-18.1V57.3c0-5.4,0.4-11.7,4.5-15.8c1.3-1.4,2.4-2.1,3-2.5c2.4-1.6,5.6-2.9,11.8-2.9
		c11.6,0,15.8,6.4,17.2,11.2c0.7,2.5,0.7,6.3,0.7,6.8V67h-6.2v-9.6c0-2.9-0.1-7.1-1.3-9.8c-1.2-2.6-4.1-5.9-10.8-5.9
		c-1.3,0-5,0-8.1,2.5c-5,4.2-4.5,10.4-4.5,16.1v43.8c0,7.6,0.1,11.7,1.8,15.1c0.9,2,3.9,6.3,10.1,6.3c2.8,0,5-1,7.1-2.8
		c6.2-5.1,6-12.2,6-14.7V93.2h-13.7v-5.6h20.1v42.3H311.5z"/>
	<path fill="#040000" d="M357.7,129.9l-21.5-87.5l0.5,87.5h-6.2V37.2h9.5l22.2,89.1l-0.9-89.1h6.3v92.7H357.7z"/>
	<path fill="#040000" d="M235.3,298c-2,3.4-6.8,8-16.3,8c-1.8,0-9.8-0.1-14.4-5.6c-3.7-4.6-4.1-9.8-4.1-15.4v-52.2
		c0-1.1,0-6.3,1.4-10.5c2.6-7.7,9.8-11.3,17.7-11.2c4.2,0,8.4,0.9,11.8,3.4c6.6,5,6.6,13,6.6,20.2V286
		C238,290.3,237.6,294.2,235.3,298z M231.8,238.3c0-7.7-0.4-12.1-2.2-15.6c-0.5-1-1.6-3-4.2-4.3c-0.9-0.5-3.1-1.4-6.2-1.4
		c-3.7,0-6,1.3-7.1,2c-5.6,3.7-5.4,11-5.4,12.6v51.1c0,5.2,0.3,8.1,1,10.5c0.9,2.5,4.2,7.2,11.6,7.2c2.6,0,5.1-0.7,7.2-2.2
		c5-3.5,5.2-9.2,5.2-14.6V238.3z"/>
	<path fill="#040000" d="M259.4,218v35.7h23.2v5.6h-23.2v45.5h-6.3v-92.7h32.7v5.8H259.4z"/>
	<path fill="#040000" d="M85.5,473.8v-96.3h43.7v6.8H92.3v89.5H85.5z"/>
	<path fill="#040000" d="M186.6,485.5l-7.9-7.7l45.3-45.3l-45.3-45.3l7.9-7.7l45.3,45.1l45.1-45.1l7.9,7.7l-45.1,45.3l45.1,45.3
		l-7.9,7.7l-45.1-45.1L186.6,485.5z"/>
	<path fill="#040000" d="M398.6,393.7v96.3h-43.7v-7h36.9v-89.4H398.6z"/>
</g>
</svg>
