<?xml version="1.0" encoding="utf-8"?>
<!-- Generator: Adobe Illustrator 17.1.0, SVG Export Plug-In . SVG Version: 6.00 Build 0)  -->
<!DOCTYPE svg PUBLIC "-//W3C//DTD SVG 1.1//EN" "http://www.w3.org/Graphics/SVG/1.1/DTD/svg11.dtd">
<svg version="1.1" id="レイヤー_1" xmlns="http://www.w3.org/2000/svg" xmlns:xlink="http://www.w3.org/1999/xlink" x="0px"
	 y="0px" viewBox="0 0 125 125" enable-background="new 0 0 125 125" xml:space="preserve">
<g>
	<path fill="#FFFFFF" d="M5.5,125c-3,0-5.5-2.2-5.5-5.3L0,6.1C0,3,2.5,0,5.5,0l114,0c3,0,5.5,3,5.5,6.1v113.5c0,3.2-2.5,5.3-5.5,5.3
		H5.5z"/>
	<path fill="#3F3F3F" d="M87.5,71.6v10.5h16.1V66.7c0-10.2-7.2-16.8-15-16.8H78.1v-9.4H62v9.4H20.5v18.8H62v11.5l16.1,1V68.7H85
		C87.2,68.7,87.5,69.5,87.5,71.6z"/>
</g>
</svg>
