<?xml version="1.0" encoding="utf-8"?>
<!-- Generator: Adobe Illustrator 17.1.0, SVG Export Plug-In . SVG Version: 6.00 Build 0)  -->
<!DOCTYPE svg PUBLIC "-//W3C//DTD SVG 1.1//EN" "http://www.w3.org/Graphics/SVG/1.1/DTD/svg11.dtd">
<svg version="1.1" id="レイヤー_1" xmlns="http://www.w3.org/2000/svg" xmlns:xlink="http://www.w3.org/1999/xlink" x="0px"
	 y="0px" viewBox="0 0 1280 800" enable-background="new 0 0 1280 800" xml:space="preserve">
<g>
	<path fill="#3F3F3F" d="M1040,764.8c0,19.2-14.1,35.2-33.9,35.2H279c-19.8,0-39-16-39-35.2V35.2C240,16,259.2,0,279,0h726.4
		c20.5,0,33.9,16,33.9,35.2v729.6H1040z"/>
	<path fill="#FFFFFF" d="M698.2,240h67.2V137.6h-98.6c-65.3,0-107.5,46.1-107.5,96v67.2h-60.2v102.4h60.2v265.6h120.3V403.2h73.6
		l6.4-103h-80V256C679.7,241.9,684.8,240,698.2,240z"/>
</g>
</svg>
