<?xml version="1.0" encoding="utf-8"?>
<!-- Generator: Adobe Illustrator 17.1.0, SVG Export Plug-In . SVG Version: 6.00 Build 0)  -->
<!DOCTYPE svg PUBLIC "-//W3C//DTD SVG 1.1//EN" "http://www.w3.org/Graphics/SVG/1.1/DTD/svg11.dtd">
<svg version="1.1" id="レイヤー_1" xmlns="http://www.w3.org/2000/svg" xmlns:xlink="http://www.w3.org/1999/xlink" x="0px"
	 y="0px" viewBox="0 0 125 125" enable-background="new 0 0 125 125" xml:space="preserve">
<circle fill="#3F3F3F" cx="61.1" cy="63.7" r="59.8"/>
<path fill="#FFFFFF" d="M123.7,62.5C123.7,28,95.7,0,61.2,0C33.6,0,10.1,17.9,1.9,42.7c-0.6,3.1,1.4,4.3,3,4.3
	c1.5,0,6.4-0.1,11.6-0.1c-3.8-17.4,7.4-21.1,7.4-21.1c7.2-2.8,9.1-6.9,9.1-6.9c3.9-5.7,3.8,0.4,3.8,0.4c-0.4,6.3-6.4,9.6-6.4,9.6
	c-9.6,5.6-6.8,14.6-5.2,18.2c4,0.6,6.8,2.2,8.3,4c1.6-13.9,6.9-28.5,30.9-28.5c6.8,0,12.4,2.4,16.8,6.4c1.6-0.6,7.9-2.8,16.6,0.6
	c0,0,1.7,5.2-6.4,17.2c1.4,5,2.1,10.3,2.1,15.6c0,5.3-0.7,10.7-2.1,15.7c8.1,11.9,6.4,17.2,6.4,17.2c-8.6,3.4-15,1.3-16.5,0.6
	c-4.4,4-9.9,6.4-16.8,6.4c-24,0-29.3-14.6-30.9-28.6c-1.9,2.3-5.7,4.2-11.6,4.2C13.7,78.1,6.9,78,4.9,78c-1.7,0-3.6,1.1-3,4.3
	c8.3,24.8,31.7,42.7,59.3,42.7C95.7,125,123.7,97,123.7,62.5L123.7,62.5z"/>
</svg>
