<?xml version="1.0" encoding="utf-8"?>
<!-- Generator: Adobe Illustrator 17.1.0, SVG Export Plug-In . SVG Version: 6.00 Build 0)  -->
<!DOCTYPE svg PUBLIC "-//W3C//DTD SVG 1.1//EN" "http://www.w3.org/Graphics/SVG/1.1/DTD/svg11.dtd">
<svg version="1.1" id="レイヤー_1" xmlns="http://www.w3.org/2000/svg" xmlns:xlink="http://www.w3.org/1999/xlink" x="0px"
	 y="0px" viewBox="0 0 1280 800" enable-background="new 0 0 1280 800" xml:space="preserve">
<path fill="#444444" d="M640,9.6c-220.8,0-400,179.2-400,400c0,176.6,114.6,327,273.9,379.5c19.8,3.8,27.5-9,27.5-19.2
	c0-9.6-0.6-41-0.6-74.2c-111.4,24.3-135-47.4-135-47.4c-17.9-46.1-44.2-58.2-44.2-58.2c-36.5-25,2.6-24.3,2.6-24.3
	c40.3,2.6,61.4,41,61.4,41c35.8,61.4,93.4,43.5,116.5,33.3c3.8-25.6,14.1-43.5,25.6-53.1c-89-10.2-182.4-44.2-182.4-197.8
	c0-43.5,15.4-79.4,41-107.5c-3.8-10.2-17.9-50.6,3.8-106.2c0,0,33.3-10.9,110.1,41c32-9,65.9-13.4,99.8-13.4
	c33.9,0,68.5,4.5,100.5,13.4c76.2-51.8,110.1-41,110.1-41c21.8,55,8.3,96,3.8,105.6c25.6,28.2,41,63.4,41,107.5
	c0,153.6-93.4,187.5-182.4,197.8c14.7,12.2,26.9,36.5,26.9,74.2c0,53.8-0.6,96.6-0.6,110.1c0,10.9,7,23,27.5,19.2
	C925.4,736.6,1040,586.9,1040,409.6C1040,188.8,860.8,9.6,640,9.6L640,9.6z"/>
</svg>
