<?xml version="1.0" encoding="utf-8"?>
<!-- Generator: Adobe Illustrator 17.1.0, SVG Export Plug-In . SVG Version: 6.00 Build 0)  -->
<!DOCTYPE svg PUBLIC "-//W3C//DTD SVG 1.1//EN" "http://www.w3.org/Graphics/SVG/1.1/DTD/svg11.dtd">
<svg version="1.1" id="レイヤー_1" xmlns="http://www.w3.org/2000/svg" xmlns:xlink="http://www.w3.org/1999/xlink" x="0px"
	 y="0px" viewBox="145 210 348 59" enable-background="new 145 210 348 59" xml:space="preserve">
<g>
	<path d="M253.1,251.7h0.7v5.8c0,2.1,0.9,3,2.3,3c1.5,0,2.3-0.9,2.3-3v-5.8h0.7v6c0,1.9-0.9,3.5-3.1,3.5c-2.2,0-3.1-1.7-3.1-3.5
		L253.1,251.7L253.1,251.7z"/>
	<path d="M261.8,251.7h0.9l2.2,3.9l2.3-3.9h0.9l-2.7,4.6l2.9,4.8h-0.9l-2.4-4.2l-2.4,4.2h-0.9l2.9-4.8L261.8,251.7z"/>
	<path d="M270.8,251.7h2.8c2.4,0.1,3.6,1.6,3.6,4.6c0,3-1.3,4.6-3.6,4.6h-2.8V251.7z M271.6,260.4h1.6c2.3,0,3.2-1.1,3.2-3.9
		c0-2.8-1-3.9-3.2-3.9h-1.6V260.4z"/>
	<path d="M280.5,257.9c0,1.2,0.6,2.7,1.8,2.7c1,0,1.6-0.7,1.8-1.8h0.7c-0.3,1.6-1,2.4-2.5,2.4c-1.8,0-2.6-1.7-2.6-3.6
		c0-1.8,0.7-3.6,2.6-3.6c1.8,0,2.6,1.9,2.5,3.8L280.5,257.9L280.5,257.9z M284.2,257.2c0-1.2-0.6-2.4-1.8-2.4
		c-1.1,0-1.8,1.2-1.8,2.4H284.2z"/>
	<path d="M291.1,256.3c0-1-0.7-1.5-1.5-1.5c-0.6,0-1.4,0.3-1.4,1.2c0,0.7,0.7,1,1.2,1.1l0.9,0.3c0.9,0.2,1.7,0.7,1.7,1.8
		c0,1.5-1.2,2.1-2.3,2.1c-1.3,0-2.2-0.7-2.3-2.4h0.7c0.1,1.1,0.7,1.7,1.7,1.7c0.6,0,1.6-0.3,1.6-1.3c0-0.7-0.6-1-1.3-1.2l-0.9-0.3
		c-0.9-0.3-1.6-0.6-1.6-1.8c0-1.4,1.1-1.9,2.1-1.9c1.1,0,2.1,0.7,2.1,2.1h-0.6V256.3z"/>
	<path d="M294.8,251.7h0.7v1.3h-0.7V251.7z M294.8,254.3h0.7v6.8h-0.7V254.3z"/>
	<path d="M303.4,260.6c0,2.1-0.6,3.2-2.6,3.2c-1.1,0-2.3-0.6-2.4-2.1h0.7c0.2,1,0.9,1.4,1.7,1.4c1.3,0,1.8-0.9,1.8-2.6v-0.9l0,0
		c-0.3,0.9-1,1.4-1.8,1.4c-1.8,0-2.6-1.6-2.6-3.4c0-1.8,0.9-3.4,2.6-3.4c0.9,0,1.6,0.6,1.8,1.4l0,0v-1.2h0.7V260.6L303.4,260.6z
		 M302.8,257.6c0-1.3-0.6-2.8-1.8-2.8c-1.3,0-1.8,1.4-1.8,2.8c0,1.4,0.6,2.7,1.8,2.7C302.1,260.4,302.8,259.1,302.8,257.6z"/>
	<path d="M306.6,254.3h0.7v1.2l0,0c0.3-0.9,1-1.4,1.8-1.4c1.6,0,2.1,1,2.1,2.6v4.3h-0.7v-4.3c0-1.2-0.3-2.1-1.5-2.1
		c-1.1,0-1.8,1-1.8,2.3v4h-0.7L306.6,254.3L306.6,254.3z"/>
	<path d="M314.7,257.9c0,1.2,0.6,2.7,1.8,2.7c1,0,1.6-0.7,1.8-1.8h0.7c-0.3,1.6-1,2.4-2.5,2.4c-1.8,0-2.6-1.7-2.6-3.6
		c0-1.8,0.7-3.6,2.6-3.6c1.8,0,2.6,1.9,2.5,3.8L314.7,257.9L314.7,257.9z M318.5,257.2c0-1.2-0.6-2.4-1.8-2.4
		c-1.1,0-1.8,1.2-1.8,2.4H318.5z"/>
	<path d="M322,254.3h0.6v1.6l0,0c0.3-1.1,1.1-1.8,2.1-1.7v0.9c-1.3-0.1-2.1,1-2.1,2.4v3.6h-0.7v-6.8H322z"/>
	<path d="M327.7,259.6c0,0,0-0.1,0.1-0.1c0,0,0.1-0.2,0.2-0.3c0.1-0.1,0.2-0.3,0.3-0.6c0.1-0.3,0.3-0.5,0.3-0.9
		c0.2-0.3,0.3-0.6,0.3-0.9c0.1-0.3,0.3-0.6,0.3-0.9c0.1-0.3,0.3-0.6,0.3-0.7c0.2-0.3,0.3-0.6,0.3-0.9c0.1-0.2,0.2-0.3,0.2-0.5
		c0-0.1,0.1-0.2,0.2-0.2h0.1c0.1,0,0.1,0,0.2,0.1c0.1,0.1,0.1,0.1,0.1,0.2c0,0,0,0.1-0.1,0.1c0,0-0.1,0.1-0.2,0.3
		c-0.3,0.6-0.6,1.1-0.7,1.6c-0.3,0.6-0.5,1-0.7,1.5c-0.2,0.5-0.3,0.9-0.6,1.3c-0.2,0.3-0.3,0.7-0.5,1l0,0c0,0,0,0-0.1,0h-0.1l0,0
		h-0.1h-0.1C327.6,259.7,327.6,259.7,327.7,259.6C327.6,259.6,327.6,259.6,327.7,259.6z"/>
	<path d="M334.2,251.7h1.1l2.8,8.3l2.8-8.3h1.1v9.4h-0.9v-8l0,0l-2.6,8h-0.7l-2.7-8l0,0v8h-0.7v-9.4L334.2,251.7L334.2,251.7z"/>
	<path d="M345.5,257.9c0,1.2,0.6,2.7,1.8,2.7c1,0,1.6-0.7,1.8-1.8h0.7c-0.3,1.6-1,2.4-2.5,2.4c-1.8,0-2.6-1.7-2.6-3.6
		c0-1.8,0.7-3.6,2.6-3.6s2.6,1.9,2.5,3.8L345.5,257.9L345.5,257.9z M349.3,257.2c0-1.2-0.6-2.4-1.8-2.4c-1.1,0-1.8,1.2-1.8,2.4
		H349.3z"/>
	<path d="M357.7,261.1h-0.6v-1.3l0,0c-0.3,0.9-1.2,1.5-2.1,1.5c-1.8,0-2.6-1.7-2.6-3.6c0-1.9,0.9-3.6,2.6-3.6c0.9,0,1.7,0.6,2.1,1.5
		l0,0v-3.9h0.7v9.4H357.7z M355,260.6c1.5,0,2.1-1.5,2.1-2.9c0-1.4-0.6-2.9-2.1-2.9c-1.3,0-1.8,1.5-1.8,2.9
		C353.2,259.1,353.6,260.6,355,260.6z"/>
	<path d="M360.9,251.7h0.7v1.3h-0.7V251.7z M360.9,254.3h0.7v6.8h-0.7V254.3z"/>
	<path d="M364.6,256.4c0.1-1.6,1-2.2,2.3-2.2c1,0,2.1,0.3,2.1,2.1v3.6c0,0.3,0.1,0.5,0.3,0.5c0.1,0,0.2,0,0.2-0.1v0.7
		c-0.2,0-0.3,0.1-0.5,0.1c-0.7,0-0.9-0.5-0.9-1.2l0,0c-0.5,0.9-1,1.4-2.1,1.4c-1,0-1.9-0.6-1.9-1.9c0-1.9,1.6-1.9,3.1-2.1
		c0.6-0.1,0.9-0.2,0.9-0.9c0-1.1-0.6-1.4-1.5-1.4c-0.9,0-1.5,0.5-1.6,1.6h-0.6L364.6,256.4L364.6,256.4z M368.3,257.4L368.3,257.4
		c-0.1,0.2-0.5,0.3-0.6,0.3c-1.2,0.3-2.7,0.3-2.7,1.6c0,0.9,0.6,1.3,1.3,1.3c1.1,0,2.1-0.9,2.1-2.1L368.3,257.4L368.3,257.4z"/>
	<path d="M379.6,251.7h0.9l3.1,9.4h-0.9l-0.9-2.9h-3.6l-0.9,2.9h-0.9L379.6,251.7z M378.4,257.4h3.1l-1.6-4.8L378.4,257.4z"/>
	<path d="M385.9,254.3h0.6v1.6l0,0c0.3-1.1,1.1-1.8,2.1-1.7v0.9c-1.3-0.1-2.1,1-2.1,2.4v3.6h-0.7v-6.8H385.9z"/>
	<path d="M392.3,254.3h1.2v0.7h-1.2v4.6c0,0.6,0.1,0.9,0.6,0.9c0.2,0,0.3,0,0.6,0v0.7c-0.2,0-0.3,0-0.6,0c-0.9,0-1.3-0.3-1.2-1.5
		v-4.6h-1v-0.7h1v-2.1h0.7L392.3,254.3L392.3,254.3z"/>
</g>
<g>
	<g>
		<path d="M156.2,219l12,18.6h0.1V219h2.9v23h-3.3l-12-18.4l0,0V242h-3v-23H156.2z"/>
		<path d="M185.2,219l9,23h-3.3l-2.6-7h-9.7l-2.6,7h-3.1l8.9-23C181.8,219,185.2,219,185.2,219z M187.4,232.5l-3.8-10.7h-0.1
			l-3.9,10.7L187.4,232.5L187.4,232.5z"/>
		<path d="M199.5,219v11.5l11.7-11.5h4l-9.6,9.2l10.1,13.7h-3.9l-8.3-11.6l-3.8,3.6v8h-3.1v-23.1h3V219z"/>
		<path d="M227.4,219l9,23h-3.3l-2.5-7h-9.7l-2.6,7h-3.1l8.9-23C224,219,227.4,219,227.4,219z M229.6,232.5l-3.8-10.7h-0.1
			l-3.9,10.7L229.6,232.5L229.6,232.5L229.6,232.5z"/>
		<path d="M241.7,219v9.9h12V219h3.1v23h-3.1v-10.5h-12V242h-3.1v-22.9L241.7,219L241.7,219z"/>
		<path d="M271.6,219l9,23h-3.3l-2.5-7H265l-2.6,7h-3.1l8.9-23C268.1,219,271.6,219,271.6,219z M273.7,232.5l-3.9-10.7l0,0
			l-3.9,10.7L273.7,232.5L273.7,232.5z"/>
		<path d="M293.5,219c2.2,0,3.9,0.6,5.1,1.6c1.2,1.1,1.8,2.5,1.8,4.4c0,1.4-0.3,2.6-0.9,3.7c-0.6,1-1.7,1.8-3.1,2.1v0.1
			c0.6,0.1,1.2,0.3,1.7,0.6c0.5,0.3,0.7,0.6,1,1.1c0.3,0.5,0.5,0.9,0.6,1.4c0.1,0.6,0.2,1,0.3,1.6c0,0.6,0.1,1.1,0.1,1.7
			s0.1,1.1,0.2,1.7c0.1,0.6,0.2,1.1,0.3,1.6c0.2,0.5,0.3,0.9,0.7,1.3h-3.4c-0.2-0.3-0.3-0.6-0.5-0.9s-0.1-0.9-0.2-1.4
			c0-0.5,0-1-0.1-1.7c0-0.6-0.1-1.1-0.2-1.7c-0.1-0.6-0.2-1.1-0.3-1.6c-0.1-0.5-0.3-0.9-0.6-1.3c-0.3-0.4-0.6-0.6-1.1-0.9
			c-0.5-0.2-1-0.3-1.8-0.3h-7.5v9.8h-3v-22.9L293.5,219L293.5,219z M294.1,229.4c0.6-0.1,1.2-0.3,1.7-0.6c0.5-0.3,0.9-0.7,1.1-1.3
			c0.3-0.6,0.5-1.2,0.5-2.1c0-1.1-0.3-2.1-0.9-2.9c-0.6-0.7-1.7-1.1-3.1-1.1h-7.6v8h6.4C292.8,229.6,293.5,229.6,294.1,229.4z"/>
		<path d="M314.3,219l9,23H320l-2.5-7h-9.7l-2.6,7h-3.1l8.9-23C310.9,219,314.3,219,314.3,219z M316.5,232.5l-3.8-10.7h-0.1
			l-3.9,10.7H316.5z"/>
		<path d="M332.1,221.7v-2.6h18.4v2.6h-7.7V242h-3.1v-20.4H332.1z"/>
		<path d="M360.7,219l9,23h-3.3l-2.5-7h-9.7l-2.6,7h-3.1l8.9-23C357.3,219,360.7,219,360.7,219z M362.8,232.5l-3.8-10.7h-0.1
			l-3.9,10.7H362.8z"/>
		<path d="M374.9,219v11.5l11.7-11.5h4l-9.6,9.2l10.1,13.7h-3.9l-8.3-11.6L375,234v8H372v-23.1h3V219z"/>
		<path d="M402.9,219l9,23h-3.3l-2.5-7h-9.7l-2.6,7h-3.1l8.9-23C399.4,219,402.9,219,402.9,219z M405,232.5l-3.8-10.7h-0.1
			l-3.9,10.7H405z"/>
		<path d="M429.2,219v2.6h-12v7.3h10.5v2.6h-10.5V242h-3.1v-23L429.2,219L429.2,219z"/>
		<path d="M448.5,240.4c-1.6,1.5-3.8,2.2-6.7,2.2c-3,0-5.3-0.7-7-2.1c-1.7-1.4-2.5-3.6-2.5-6.7v-14.7h3.1v14.7
			c0,2.1,0.6,3.6,1.7,4.6c1.1,1,2.7,1.6,4.7,1.6c1.9,0,3.4-0.6,4.4-1.6s1.5-2.6,1.5-4.6v-14.7h3.1v14.7
			C450.9,236.7,450.1,238.9,448.5,240.4z"/>
		<path d="M460.1,219l7.2,19.3l7.2-19.3h4.2v23h-2.9v-19.1h-0.1l-7.1,19.1H466l-7.1-19.1h-0.2V242h-2.9v-23H460.1z"/>
		<path d="M487,219v23h-3.1v-23H487z"/>
	</g>
</g>
</svg>
