<?xml version="1.0" encoding="utf-8"?>
<!-- Generator: Adobe Illustrator 17.1.0, SVG Export Plug-In . SVG Version: 6.00 Build 0)  -->
<!DOCTYPE svg PUBLIC "-//W3C//DTD SVG 1.1//EN" "http://www.w3.org/Graphics/SVG/1.1/DTD/svg11.dtd">
<svg version="1.1" id="レイヤー_1" xmlns="http://www.w3.org/2000/svg" xmlns:xlink="http://www.w3.org/1999/xlink" x="0px"
	 y="0px" viewBox="0 0 1280 800" enable-background="new 0 0 1280 800" xml:space="preserve">
<g>
	<path fill="#3F3F3F" d="M1040,766.1c0,19.2-14.1,33.9-33.9,33.9H279c-19.8,0-39-14.1-39-33.9v-729C240,17.3,259.2,0,279,0h726.4
		c20.5,0,33.9,17.3,33.9,37.1v729H1040z"/>
	<path fill="#FFFFFF" d="M634.9,540.8c-4.5,0-7.7-7-7.7-11.5c0,0-2.6-42.2-2.6-71c0-28.8,2.6-167.7,2.6-167.7c0-4.5,3.2-6.4,7.7-6.4
		l0,0c4.5,0,7.7,2.6,7.7,7c0,0,2.6,139.5,2.6,167.7c0,28.8-2.6,70.4-2.6,70.4C643.2,533.8,639.4,540.8,634.9,540.8L634.9,540.8z
		 M608.6,540.8c4.5,0,7.7-7,7.7-11.5c0,0,2.6-41.6,2.6-69.8c0-28.8-2.6-154.2-2.6-154.2c0-4.5-3.2-8.3-7.7-8.3l0,0
		c-4.5,0-7.7,3.2-7.7,7.7c0,0-2.6,124.8-2.6,153.6c0,28.8,2.6,71.7,2.6,71.7C600.3,533.8,604.2,540.8,608.6,540.8L608.6,540.8z
		 M581.8,540.8c4.5,0,7.7-7,7.7-11.5c0,0,2.6-41.6,2.6-69.8c0-28.8-2.6-126.1-2.6-126.1c0-4.5-3.8-9.6-8.3-9.6l0,0
		c-4.5,0-7.7,4.5-7.7,8.3c0,0-2.6,97.9-2.6,126.7c0,28.8,2.6,71,2.6,71C574.1,534.4,577.3,540.8,581.8,540.8L581.8,540.8z
		 M554.9,540.8c4.5,0,7.7-7,7.7-11.5c0,0,2.6-41.6,2.6-69.8c0-28.8-2.6-129.9-2.6-129.9c0-4.5-3.2-7.7-7.7-7.7l0,0
		c-4.5,0-7.7,2.6-7.7,7c0,0-2.6,102.4-2.6,130.6c0,28.8,2.6,70.4,2.6,70.4C547.2,534.4,550.4,540.8,554.9,540.8L554.9,540.8z
		 M528.6,540.8c3.8,0,6.4-7,6.4-10.2c0,0,2.6-37.8,2.6-63.4s-2.6-144-2.6-144c0-3.8-3.2-7-6.4-7l0,0c-3.8,0-6.4,2.6-6.4,5.8
		c0,0-2.6,117.8-2.6,143.4s2.6,65.3,2.6,65.3C521.6,533.8,524.8,540.8,528.6,540.8L528.6,540.8z M505,540.8c3.2,0,6.4-6.4,6.4-10.2
		c0,0,3.2-37.8,3.2-64c0-25.6-3.2-138.2-3.2-138.2c0-3.2-2.6-6.4-6.4-6.4l0,0c-3.2,0-6.4,1.9-6.4,5.8c0,0-3.2,112-3.2,137.6
		s3.2,65.3,3.2,65.3C497.9,534.4,501.1,540.8,505,540.8L505,540.8z M479.4,540.8c3.2,0,6.4-6.4,6.4-10.2c0,0,3.2-37.8,3.2-64
		c0-25.6-3.2-126.7-3.2-126.7c0-3.2-2.6-5.8-6.4-5.8l0,0c-3.2,0-6.4,1.3-6.4,4.5c0,0-3.2,101.1-3.2,126.7c0,25.6,3.2,65.9,3.2,65.9
		C473,534.4,475.5,540.8,479.4,540.8L479.4,540.8z M454.4,540.8c3.2,0,5.8-6.4,5.8-9.6c0,0,3.8-38.4,3.8-64s-4.5-106.9-4.5-106.9
		c0-2.6-2.6-7-5.1-7l0,0c-2.6,0-5.1,3.2-5.1,6.4c0,0-4.5,79.4-4.5,105c0,25.6,3.8,66.6,3.8,66.6C448,533.8,450.6,540.8,454.4,540.8
		L454.4,540.8z M427.5,540.8c2.6,0,5.1-5.8,5.1-9c0,0,3.2-34.6,3.2-58.2c0-23-3.8-71.7-3.8-71.7c0-2.6-1.9-5.1-4.5-5.1l0,0
		c-2.6,0-4.5,1.9-4.5,4.5c0,0-3.8,47.4-3.8,70.4c0,23,3.2,60.2,3.2,60.2C422.4,534.4,424.3,540.8,427.5,540.8L427.5,540.8z
		 M403.8,540.8c2.6,0,4.5-5.8,4.5-8.3c0,0,4.5-35.8,4.5-58.9s-4.5-78.1-4.5-78.1c0-3.2-1.9-5.1-3.8-5.1l0,0c-1.9,0-3.8,1.9-3.8,3.8
		c0,0-4.5,53.8-4.5,76.8c0,23,4.5,60.8,4.5,60.8C399.4,535,401.3,540.8,403.8,540.8L403.8,540.8z M378.2,534.4
		c2.6,0,4.5-3.8,4.5-6.4c0,0,4.5-32.6,3.8-55c0-22.4-5.1-73-5.1-73c0-5.1-7-6.4-8.3-0.6c0,0-4.5,50.6-4.5,72.3
		c0,22.4,4.5,56.3,4.5,56.3C374.4,530.6,376.3,534.4,378.2,534.4L378.2,534.4z M353.3,528c1.9,0,3.8-3.8,3.8-5.8
		c0,0,3.8-30.1,3.8-49.9c0-19.8-4.5-60.8-4.5-60.8c0-5.8-7-6.4-7-0.6c0,0-3.8,40.3-3.8,60.2c0,19.8,3.8,50.6,3.8,50.6
		C349.4,524.2,350.7,528,353.3,528L353.3,528z M330.9,503c1.9,0,3.2-3.8,3.2-5.1c0,0,3.2-19.8,3.2-36.5c0-17.3-3.8-30.7-3.8-30.7
		c-0.6-5.1-5.1-5.8-6.4-0.6c0,0-3.2,14.1-3.2,30.7c0,17.3,3.2,37.8,3.2,37.8C327.7,499.8,329,503,330.9,503L330.9,503z M876.8,378.9
		c-11.5,0-22.4,2.6-32,7c-5.1-69.1-62.7-123.5-132.5-123.5c-28.2,0-48,3.8-55.7,10.2l0,0c-3.2,1.3-4.5,3.8-4.5,8.3
		c0,14.1-0.6,227.8-0.6,242.6c0,14.7,4.5,14.1,12.2,14.1s172.8-0.6,217.6-0.6c42.9-1.9,74.9-35.8,74.9-79.4
		C956.2,414.1,921,378.9,876.8,378.9z"/>
</g>
</svg>
