<?xml version="1.0" encoding="utf-8"?>
<!-- Generator: Adobe Illustrator 17.1.0, SVG Export Plug-In . SVG Version: 6.00 Build 0)  -->
<!DOCTYPE svg PUBLIC "-//W3C//DTD SVG 1.1//EN" "http://www.w3.org/Graphics/SVG/1.1/DTD/svg11.dtd">
<svg version="1.1" id="レイヤー_1" xmlns="http://www.w3.org/2000/svg" xmlns:xlink="http://www.w3.org/1999/xlink" x="0px"
	 y="0px" viewBox="0 0 125 125" enable-background="new 0 0 125 125" xml:space="preserve">
<g>
	<path fill="#FFFFFF" d="M5.3,125c-3,0-5.3-2.2-5.3-5.3L0,6.1C0,3,2.2,0,5.3,0l114,0c3,0,5.8,3,5.8,6.1v113.5c0,3.2-2.7,5.3-5.8,5.3
		H5.3z"/>
	<path fill="#3F3F3F" d="M40.5,61.7c0-0.7,1.1-1.2,1.8-1.2c0,0,6.6-0.4,11.1-0.4c4.5,0,26.2,0.4,26.2,0.4c0.7,0,1,0.5,1,1.2v0
		c0,0.7-0.4,1.2-1.1,1.2c0,0-21.8,0.4-26.2,0.4s-11-0.4-11-0.4C41.6,63,40.5,62.4,40.5,61.7L40.5,61.7z M40.5,57.6
		c0,0.7,1.1,1.2,1.8,1.2c0,0,6.5,0.4,10.9,0.4c4.5,0,24.1-0.4,24.1-0.4c0.7,0,1.3-0.5,1.3-1.2v0c0-0.7-0.5-1.2-1.2-1.2
		c0,0-19.5-0.4-24-0.4c-4.5,0-11.2,0.4-11.2,0.4C41.6,56.3,40.5,56.9,40.5,57.6L40.5,57.6z M40.5,53.4c0,0.7,1.1,1.2,1.8,1.2
		c0,0,6.5,0.4,10.9,0.4c4.5,0,19.7-0.4,19.7-0.4c0.7,0,1.5-0.6,1.5-1.3l0,0c0-0.7-0.7-1.2-1.3-1.2c0,0-15.3-0.4-19.8-0.4
		c-4.5,0-11.1,0.4-11.1,0.4C41.5,52.2,40.5,52.7,40.5,53.4L40.5,53.4z M40.5,49.2c0,0.7,1.1,1.2,1.8,1.2c0,0,6.5,0.4,10.9,0.4
		c4.5,0,20.3-0.4,20.3-0.4c0.7,0,1.2-0.5,1.2-1.2v0c0-0.7-0.4-1.2-1.1-1.2c0,0-16-0.4-20.4-0.4s-11,0.4-11,0.4
		C41.5,48,40.5,48.5,40.5,49.2L40.5,49.2z M40.5,45.1c0,0.6,1.1,1,1.6,1c0,0,5.9,0.4,9.9,0.4c4,0,22.5-0.4,22.5-0.4
		c0.6,0,1.1-0.5,1.1-1v0c0-0.6-0.4-1-0.9-1c0,0-18.4-0.4-22.4-0.4c-4,0-10.2,0.4-10.2,0.4C41.6,44,40.5,44.5,40.5,45.1L40.5,45.1z
		 M40.5,41.4c0,0.5,1,1,1.6,1c0,0,5.9,0.5,10,0.5c4,0,21.6-0.5,21.6-0.5c0.5,0,1-0.4,1-1v0c0-0.5-0.3-1-0.9-1c0,0-17.5-0.5-21.5-0.5
		c-4,0-10.2,0.5-10.2,0.5C41.5,40.3,40.5,40.8,40.5,41.4L40.5,41.4z M40.5,37.4c0,0.5,1,1,1.6,1c0,0,5.9,0.5,10,0.5
		c4,0,19.8-0.5,19.8-0.5c0.5,0,0.9-0.4,0.9-1v0c0-0.5-0.2-1-0.7-1c0,0-15.8-0.5-19.8-0.5S42,36.4,42,36.4
		C41.5,36.4,40.5,36.8,40.5,37.4L40.5,37.4z M40.5,33.5c0,0.5,1,0.9,1.5,0.9c0,0,6,0.6,10,0.6c4,0,16.7-0.7,16.7-0.7
		c0.4,0,1.1-0.4,1.1-0.8v0c0-0.4-0.5-0.8-1-0.8c0,0-12.4-0.7-16.4-0.7c-4,0-10.4,0.6-10.4,0.6C41.6,32.5,40.5,32.9,40.5,33.5
		L40.5,33.5z M40.5,29.3c0,0.4,0.9,0.8,1.4,0.8c0,0,5.4,0.5,9.1,0.5c3.6,0,11.2-0.6,11.2-0.6c0.4,0,0.8-0.3,0.8-0.7v0
		c0-0.4-0.3-0.7-0.7-0.7c0,0-7.4-0.6-11-0.6c-3.6,0-9.4,0.5-9.4,0.5C41.5,28.5,40.5,28.8,40.5,29.3L40.5,29.3z M40.5,25.6
		c0,0.4,0.9,0.7,1.3,0.7c0,0,5.6,0.7,9.2,0.7s12.2-0.7,12.2-0.7c0.5,0,0.8-0.3,0.8-0.6v0c0-0.3-0.3-0.6-0.6-0.6c0,0-8.4-0.7-12-0.7
		c-3.6,0-9.5,0.7-9.5,0.7C41.4,24.9,40.5,25.2,40.5,25.6L40.5,25.6z M41.5,21.6c0,0.4,0.6,0.7,1,0.7c0,0,5.1,0.7,8.6,0.6
		c3.5,0,11.4-0.8,11.4-0.8c0.8,0,1-1.1,0.1-1.3c0,0-7.9-0.7-11.3-0.7c-3.5,0-8.8,0.7-8.8,0.7C42.1,21,41.5,21.3,41.5,21.6L41.5,21.6
		z M42.5,17.7c0,0.3,0.6,0.6,0.9,0.6c0,0,4.7,0.6,7.8,0.6c3.1,0,9.5-0.7,9.5-0.7c0.9,0,1-1.1,0.1-1.1c0,0-6.3-0.6-9.4-0.6
		c-3.1,0-7.9,0.6-7.9,0.6C43.1,17.1,42.5,17.3,42.5,17.7L42.5,17.7z M46.4,14.2c0,0.3,0.6,0.5,0.8,0.5c0,0,3.1,0.5,5.7,0.5
		c2.7,0,4.8-0.6,4.8-0.6c0.8-0.1,0.9-0.8,0.1-1c0,0-2.2-0.5-4.8-0.5c-2.7,0-5.9,0.5-5.9,0.5C46.9,13.7,46.4,13.9,46.4,14.2
		L46.4,14.2z M65.8,99.5c0-1.8-0.4-3.5-1.1-5C75.5,93.7,84,84.7,84,73.8c0-4.4-0.6-7.5-1.6-8.7l0,0c-0.2-0.5-0.6-0.7-1.3-0.7
		c-2.2,0-35.6-0.1-37.9-0.1c-2.3,0-2.2,0.8-2.2,1.9c0,1.2,0.1,27,0.1,34c0.3,6.7,5.6,11.7,12.4,11.7
		C60.3,111.9,65.8,106.4,65.8,99.5z"/>
</g>
</svg>
