<?xml version="1.0" encoding="utf-8"?>
<!-- Generator: Adobe Illustrator 17.1.0, SVG Export Plug-In . SVG Version: 6.00 Build 0)  -->
<!DOCTYPE svg PUBLIC "-//W3C//DTD SVG 1.1//EN" "http://www.w3.org/Graphics/SVG/1.1/DTD/svg11.dtd">
<svg version="1.1" id="レイヤー_1" xmlns="http://www.w3.org/2000/svg" xmlns:xlink="http://www.w3.org/1999/xlink" x="0px"
	 y="0px" viewBox="-245.3 1207 1492.7 327.3" enable-background="new -245.3 1207 1492.7 327.3" xml:space="preserve">
<rect x="596.9" y="583.4" fill="none" width="12.8" height="334.9"/>
<rect x="1343.3" y="583.4" fill="none" width="10.2" height="334.9"/>
<g>
	<path fill="#231815" d="M1247.5,1330.2h-131.7v-80.1c0-23.4,19-42.4,42.4-42.4h89.3V1330.2z"/>
	<path fill="#231815" d="M1247.5,1533.5h-131.7v-151.2c0-23.4,19-42.4,42.4-42.4h89.3V1533.5z"/>
	<path fill="#231815" d="M1103.5,1533.5H915.9l83.8-294.4c5.3-18.5,22.2-31.3,41.5-31.3h62.3V1533.5z"/>
</g>
<g>
	<path fill="#231815" d="M861.7,1533.5H730.1v-151.2c0-23.4,19-42.4,42.4-42.4h89.3V1533.5z"/>
	<path fill="#231815" d="M862.3,1207.6H627.4c-23.4,0-42.4,19-42.4,42.4v283.6h132.7v-203.4h144L862.3,1207.6z M779.6,1279.7h-63.8
		v-22.5h63.8V1279.7z"/>
</g>
<path fill="#231815" d="M-83.5,1207.5h-161.7l84,295.1c5.3,18.6,22.3,31.4,41.6,31.4h36.2V1207.5z"/>
<rect x="3" y="1208" fill="#231815" width="83" height="326"/>
<rect x="-73" y="1208" fill="#231815" width="64" height="326"/>
<g>
	<path fill="#231815" d="M244.2,1533.8h88.9v-326.3h-88.9c-23.4,0-42.4,19-42.4,42.4v241.5C201.9,1514.8,220.8,1533.8,244.2,1533.8z
		"/>
	<path fill="#231815" d="M433.2,1533.8h-88.9v-326.3h88.9c23.4,0,42.4,19,42.4,42.4v241.5C475.6,1514.8,456.6,1533.8,433.2,1533.8z"
		/>
</g>
<rect x="333" y="1204" fill="none" width="11" height="326"/>
<rect x="720" y="1204" fill="none" width="11" height="326"/>
<rect x="1106" y="1204" fill="none" width="11" height="326"/>
</svg>
