<?xml version="1.0" encoding="utf-8"?>
<!-- Generator: Adobe Illustrator 17.1.0, SVG Export Plug-In . SVG Version: 6.00 Build 0)  -->
<!DOCTYPE svg PUBLIC "-//W3C//DTD SVG 1.1//EN" "http://www.w3.org/Graphics/SVG/1.1/DTD/svg11.dtd">
<svg version="1.1" id="レイヤー_1" xmlns="http://www.w3.org/2000/svg" xmlns:xlink="http://www.w3.org/1999/xlink" x="0px"
	 y="0px" viewBox="0 0 501.9 87.1" enable-background="new 0 0 501.9 87.1" xml:space="preserve">
<g>
	<path fill="#231815" d="M398,32.7h-35.1V11.3C362.9,5.1,368,0,374.2,0H398V32.7z"/>
	<path fill="#231815" d="M398,86.9h-35.1V46.5c0-6.2,5.1-11.3,11.3-11.3H398V86.9z"/>
	<path fill="#231815" d="M359.7,86.9h-50L332,8.4C333.4,3.4,337.9,0,343,0l16.6,0V86.9z"/>
</g>
<g>
	<path fill="#231815" d="M295.2,86.9h-35.1V46.6c0-6.2,5.1-11.3,11.3-11.3h23.8V86.9z"/>
	<path fill="#231815" d="M295.3,0h-62.6c-6.2,0-11.3,5.1-11.3,11.3v75.6h35.4V32.6l38.4,0L295.3,0z M273.3,19.2h-17v-6h17V19.2z"/>
</g>
<path fill="#231815" d="M43.1,0L0,0l22.4,78.7c1.4,5,5.9,8.4,11.1,8.4l9.6,0V0z"/>
<rect x="65.7" y="-0.1" fill="#231815" width="22" height="87"/>
<rect x="45.7" y="-0.1" fill="#231815" width="17" height="87"/>
<g>
	<path fill="#231815" d="M130.5,86.9h23.7v-87h-23.7c-6.2,0-11.3,5.1-11.3,11.3v64.4C119.2,81.9,124.3,86.9,130.5,86.9z"/>
	<path fill="#231815" d="M180.9,86.9h-23.7v-87h23.7c6.2,0,11.3,5.1,11.3,11.3v64.4C192.2,81.9,187.2,86.9,180.9,86.9z"/>
</g>
<rect x="153.7" y="-1.1" fill="none" width="3" height="87"/>
<rect x="256.7" y="-1.1" fill="none" width="3" height="87"/>
<rect x="359.7" y="-1.1" fill="none" width="3" height="87"/>
<g>
	<path fill="#231815" d="M501.9,87.1h-73.4V63.3c0-6.3,5.1-11.4,11.4-11.4h18.3V49l-29.7,0l0-16.2h29.7h12l0,4.2h31.7v14.9V87.1z"/>
	<path fill="#231815" d="M501.9,33.7h-73.4V11.4c0-6.3,5.1-11.4,11.4-11.4h62V33.7z"/>
	<path fill="#231815" d="M458.2,51.9"/>
</g>
</svg>
