<?xml version="1.0" encoding="utf-8"?>
<!-- Generator: Adobe Illustrator 17.1.0, SVG Export Plug-In . SVG Version: 6.00 Build 0)  -->
<!DOCTYPE svg PUBLIC "-//W3C//DTD SVG 1.1//EN" "http://www.w3.org/Graphics/SVG/1.1/DTD/svg11.dtd">
<svg version="1.1" id="レイヤー_1" xmlns="http://www.w3.org/2000/svg" xmlns:xlink="http://www.w3.org/1999/xlink" x="0px"
	 y="0px" viewBox="0 123.3 595.3 595.3" enable-background="new 0 123.3 595.3 595.3" xml:space="preserve">
<g>
	<rect y="123.3" fill="#FFFFFF" width="595.3" height="595.3"/>
</g>
<g>
	<polygon fill="#76B9B7" points="284.1,388.7 242.3,478 200.5,388.7 	"/>
	<polygon fill="#76B9B7" points="200.5,388.7 242.3,299.5 284.1,388.7 	"/>
	<polygon fill="#76B9B7" points="325.9,299.5 284.1,388.7 242.3,299.5 	"/>
	<polygon fill="#76B9B7" points="242.3,478 200.5,567.2 158.7,478 	"/>
	<polygon fill="#76B9B7" points="158.7,478 200.5,388.7 242.3,478 	"/>
	<polygon fill="#76B9B7" points="116.9,567.2 158.7,478 200.5,567.2 	"/>
</g>
<g>
	<polygon fill="#76B9B7" points="398.2,388.7 356.4,478 314.6,388.7 	"/>
	<polygon fill="#76B9B7" points="314.6,388.7 356.4,299.5 398.2,388.7 	"/>
	<polygon fill="#76B9B7" points="272.9,478 314.6,388.7 356.4,478 	"/>
	<polygon fill="#76B9B7" points="440,478 398.2,567.2 356.4,478 	"/>
	<polygon fill="#76B9B7" points="356.4,478 398.2,388.7 440,478 	"/>
	<polygon fill="#76B9B7" points="397.8,567.2 439.6,478 481.4,567.2 	"/>
</g>
</svg>
